<svg width="327" height="176" viewBox="0 0 327 176" fill="none" xmlns="http://www.w3.org/2000/svg">
<g clip-path="url(#clip0_43_19857)">
<rect width="327" height="176" rx="16" fill="url(#paint0_linear_43_19857)"/>
<path fill-rule="evenodd" clip-rule="evenodd" d="M333.552 60.8791C337.311 53.1853 338.92 45.9 337.84 39.2249L339.815 38.9055C340.983 46.125 339.217 53.8393 335.349 61.757C331.481 69.6765 325.477 77.8661 318.061 86.0765C303.231 102.497 282.641 119.124 261.816 133.982C240.982 148.846 219.873 161.966 203.975 171.369C196.025 176.071 189.376 179.845 184.714 182.444C182.383 183.743 180.548 184.749 179.296 185.43C178.67 185.771 178.189 186.03 177.864 186.205C177.702 186.292 177.579 186.358 177.496 186.403L177.403 186.453L177.379 186.465L177.373 186.468C177.371 186.469 177.371 186.47 176.901 185.587C176.431 184.704 176.432 184.704 176.433 184.703L176.438 184.7L176.461 184.688L176.553 184.639C176.634 184.595 176.756 184.53 176.917 184.444C177.239 184.27 177.717 184.013 178.34 183.673C179.587 182.995 181.416 181.993 183.74 180.697C188.39 178.105 195.024 174.34 202.957 169.648C218.825 160.262 239.883 147.173 260.655 132.354C281.435 117.528 301.889 100.999 316.577 84.736C323.921 76.6048 329.795 68.5711 333.552 60.8791ZM322.361 85.0089C336.34 68.527 344.783 52.5339 343.173 38.8998L345.159 38.6653C346.876 53.2026 337.902 69.778 323.886 86.3026C309.822 102.885 290.47 119.657 270.952 134.636C251.427 149.621 231.698 162.839 216.854 172.309C209.431 177.044 203.227 180.844 198.878 183.46C196.704 184.769 194.993 185.781 193.825 186.467C193.241 186.81 192.793 187.071 192.49 187.247C192.339 187.334 192.224 187.401 192.147 187.445L192.06 187.496L192.037 187.509L192.032 187.512C192.03 187.513 192.03 187.513 191.531 186.646C191.033 185.779 191.034 185.779 191.035 185.778L191.04 185.775L191.061 185.763L191.147 185.714C191.223 185.67 191.336 185.604 191.486 185.517C191.786 185.343 192.231 185.083 192.812 184.742C193.974 184.06 195.679 183.051 197.847 181.747C202.183 179.138 208.372 175.347 215.778 170.623C230.592 161.172 250.27 147.988 269.735 133.049C289.207 118.106 308.43 101.433 322.361 85.0089ZM348.508 38.5752C349.554 52.4486 341.355 68.6489 328.143 85.2831C314.969 101.87 296.977 118.684 278.814 133.746C260.657 148.802 242.361 162.08 228.601 171.596C221.722 176.353 215.979 180.169 211.957 182.794C209.945 184.107 208.365 185.122 207.287 185.809C206.748 186.152 206.335 186.413 206.058 186.588L205.916 186.677L205.743 186.786L205.664 186.835L205.644 186.848L205.64 186.851C205.639 186.851 205.638 186.852 206.167 187.7C206.697 188.548 206.697 188.548 206.699 188.547L206.704 188.544L206.724 188.531L206.806 188.48L206.898 188.422L207.124 188.28C207.405 188.103 207.82 187.84 208.362 187.495C209.445 186.805 211.032 185.786 213.05 184.469C217.085 181.835 222.843 178.01 229.739 173.241C243.528 163.705 261.874 150.391 280.09 135.285C298.3 120.185 316.411 103.269 329.709 86.527C342.969 69.8323 351.61 53.1056 350.502 38.4248L348.508 38.5752ZM333.923 85.56C346.369 68.7718 354.319 52.3661 353.839 38.2567L355.838 38.1887C356.342 53.0117 348.03 69.889 335.53 86.7511C323 103.652 306.129 120.712 289.229 135.933C272.323 151.158 255.36 164.569 242.626 174.172C236.258 178.975 230.946 182.826 227.225 185.477C225.364 186.803 223.901 187.829 222.902 188.524C222.403 188.871 222.02 189.136 221.761 189.314L221.582 189.437L221.468 189.516L221.393 189.567L221.374 189.58L221.369 189.583C221.368 189.584 221.367 189.584 220.804 188.758C220.241 187.932 220.242 187.931 220.242 187.931L220.247 187.928L220.265 187.915L220.338 187.865C220.402 187.821 220.499 187.755 220.627 187.667C220.883 187.49 221.264 187.228 221.76 186.882C222.753 186.191 224.21 185.17 226.064 183.849C229.773 181.206 235.07 177.365 241.422 172.576C254.127 162.995 271.041 149.621 287.89 134.447C304.745 119.267 321.506 102.309 333.923 85.56ZM359.177 37.9338C359.087 52.28 351.391 68.8922 339.708 85.8372C328.048 102.751 312.516 119.853 296.97 135.151C281.427 150.445 265.893 163.914 254.242 173.56C248.417 178.382 243.564 182.248 240.169 184.907C238.471 186.237 237.138 187.265 236.23 187.96C235.776 188.308 235.428 188.572 235.194 188.749C235.077 188.838 234.989 188.905 234.929 188.949L234.863 188.999L234.846 189.012L234.842 189.015C234.842 189.015 234.841 189.016 235.441 189.816C236.041 190.616 236.042 190.615 236.043 190.615L236.047 190.611L236.065 190.598L236.133 190.547C236.193 190.501 236.283 190.433 236.402 190.344C236.638 190.164 236.989 189.898 237.446 189.548C238.359 188.849 239.699 187.816 241.402 186.482C244.81 183.813 249.677 179.936 255.517 175.1C267.197 165.43 282.777 151.923 298.372 136.577C313.963 121.235 329.593 104.032 341.355 86.9724C353.095 69.9443 361.083 52.9148 361.177 37.9464L359.177 37.9338ZM345.491 86.1143C356.413 69.0105 363.851 52.1928 364.517 37.6118L366.514 37.7031C365.824 52.8176 358.154 69.9991 347.177 87.1906C336.183 104.407 321.795 121.752 307.514 137.214C293.229 152.68 279.033 166.283 268.409 176.019C263.096 180.888 258.675 184.791 255.582 187.477C254.035 188.821 252.82 189.86 251.991 190.564C251.577 190.916 251.259 191.184 251.044 191.364C250.937 191.454 250.855 191.523 250.8 191.569L250.738 191.62L250.722 191.634L250.718 191.637C250.717 191.638 250.717 191.638 250.077 190.87C249.437 190.101 249.438 190.101 249.438 190.1L249.442 190.097L249.457 190.085L249.517 190.034C249.571 189.99 249.651 189.922 249.757 189.833C249.969 189.655 250.285 189.389 250.696 189.039C251.52 188.34 252.729 187.305 254.27 185.967C257.352 183.291 261.759 179.4 267.057 174.545C277.654 164.834 291.808 151.27 306.044 135.857C320.284 120.44 334.586 103.193 345.491 86.1143ZM369.859 37.2951C368.615 52.109 361.439 69.1317 351.278 86.3962C341.128 103.641 328.055 121.034 315.122 136.57C302.191 152.103 289.416 165.763 279.873 175.54C275.101 180.428 271.139 184.344 268.37 187.037C266.986 188.384 265.9 189.425 265.161 190.129C264.791 190.48 264.508 190.748 264.318 190.927C264.223 191.017 264.151 191.085 264.103 191.13L264.049 191.18L264.036 191.193L264.032 191.196C264.032 191.196 264.031 191.197 264.714 191.928C265.396 192.659 265.397 192.658 265.398 192.657L265.401 192.654L265.416 192.641L265.471 192.588C265.521 192.542 265.594 192.473 265.69 192.383C265.883 192.201 266.168 191.931 266.54 191.577C267.284 190.869 268.375 189.823 269.765 188.471C272.544 185.767 276.519 181.838 281.304 176.937C290.872 167.134 303.685 153.435 316.659 137.85C329.63 122.268 342.776 104.783 353.002 87.4107C363.215 70.0581 370.57 52.7243 371.852 37.4625L369.859 37.2951ZM357.065 86.6756C366.467 69.2481 373.376 52.0208 375.201 36.9758L377.186 37.2166C375.317 52.6275 368.273 70.1138 358.825 87.6253C349.369 105.152 337.464 122.776 325.804 138.477C314.142 154.18 302.713 167.975 294.2 177.843C289.943 182.778 286.414 186.732 283.949 189.453C282.717 190.814 281.75 191.866 281.091 192.579C280.761 192.935 280.508 193.207 280.338 193.39C280.252 193.481 280.188 193.55 280.144 193.597L280.095 193.649L280.082 193.662L280.079 193.666C280.078 193.667 280.078 193.667 279.35 192.982C278.622 192.296 278.622 192.296 278.623 192.295L278.626 192.292L278.638 192.279L278.685 192.228C278.728 192.183 278.792 192.115 278.876 192.025C279.044 191.844 279.295 191.575 279.622 191.221C280.277 190.513 281.239 189.466 282.467 188.11C284.923 185.4 288.44 181.458 292.685 176.537C301.176 166.694 312.573 152.939 324.198 137.285C335.825 121.628 347.67 104.088 357.065 86.6756ZM380.538 36.659C375.709 67.2614 353.939 106.407 333.266 138.008C322.946 153.784 312.929 167.637 305.491 177.547C301.772 182.501 298.699 186.469 296.557 189.197C295.485 190.561 294.646 191.615 294.076 192.328C293.791 192.684 293.573 192.955 293.426 193.137L293.26 193.341L293.219 193.393L293.208 193.405L293.206 193.408C293.205 193.409 293.205 193.409 293.98 194.041C294.756 194.672 294.756 194.672 294.757 194.671L294.76 194.667L294.771 194.654L294.814 194.601C294.851 194.554 294.908 194.485 294.982 194.393C295.051 194.307 295.136 194.202 295.237 194.077C295.312 193.983 295.396 193.879 295.488 193.763L295.637 193.578C296.212 192.86 297.054 191.801 298.129 190.432C300.28 187.694 303.362 183.715 307.09 178.747C314.547 168.813 324.59 154.924 334.94 139.103C355.607 107.509 377.61 68.0421 382.514 36.9708L380.538 36.659ZM342.345 138.738C360.396 106.906 379.882 67.3902 385.884 36.3465L387.847 36.7261C381.778 68.1204 362.14 107.885 344.085 139.725C335.047 155.662 326.388 169.645 319.988 179.643C316.788 184.642 314.153 188.646 312.317 191.401C311.398 192.778 310.68 193.844 310.191 194.565C309.947 194.926 309.759 195.2 309.633 195.385L309.49 195.594L309.454 195.648L309.444 195.661L309.442 195.664C309.441 195.665 309.441 195.666 308.617 195.099C307.794 194.532 307.794 194.531 307.794 194.531L307.796 194.528L307.805 194.515L307.841 194.463L307.982 194.257C308.107 194.074 308.293 193.801 308.536 193.443C309.022 192.726 309.737 191.665 310.652 190.292C312.482 187.546 315.111 183.552 318.304 178.565C324.69 168.588 333.329 154.637 342.345 138.738ZM391.229 36.0314C384.052 67.5128 366.858 107.401 351.424 139.469C343.713 155.492 336.451 169.542 331.117 179.587C328.451 184.609 326.266 188.629 324.748 191.393C323.99 192.775 323.398 193.843 322.996 194.565C322.795 194.926 322.641 195.2 322.538 195.384L322.421 195.592L322.392 195.644L322.385 195.657L322.383 195.66C322.382 195.661 322.382 195.661 323.253 196.153C324.124 196.644 324.125 196.643 324.125 196.643L324.127 196.639L324.135 196.626L324.165 196.572L324.283 196.362C324.356 196.231 324.454 196.055 324.577 195.835L324.743 195.538C325.147 194.812 325.741 193.741 326.502 192.355C328.023 189.584 330.212 185.556 332.884 180.525C338.227 170.463 345.501 156.388 353.226 140.336C368.666 108.254 385.948 68.193 393.179 36.476L391.229 36.0314ZM360.504 140.205C373.321 107.897 388.215 67.6356 396.576 35.7177L398.51 36.2244C390.117 68.2667 375.185 108.623 362.363 140.943C355.95 157.108 350.061 171.274 345.775 181.398C343.632 186.46 341.89 190.512 340.683 193.299C340.08 194.693 339.61 195.77 339.291 196.499C339.132 196.864 339.01 197.141 338.929 197.328L338.836 197.539L338.812 197.592L338.806 197.605L338.805 197.609C338.804 197.61 338.804 197.61 337.889 197.207C336.974 196.803 336.975 196.803 336.975 196.802L336.976 196.799L336.982 196.786L337.005 196.733L337.097 196.523C337.179 196.338 337.3 196.061 337.459 195.698C337.777 194.971 338.245 193.896 338.848 192.504C340.053 189.722 341.793 185.675 343.933 180.618C348.215 170.504 354.098 156.353 360.504 140.205ZM401.917 35.4108C392.374 67.7627 379.787 108.4 369.585 140.953C364.484 157.229 359.98 171.482 356.751 181.666C355.136 186.759 353.841 190.833 352.949 193.635C352.502 195.036 352.157 196.119 351.924 196.851L351.658 197.683L351.591 197.894L351.574 197.948L351.57 197.961L351.569 197.964C351.568 197.965 351.568 197.965 352.521 198.27C353.473 198.574 353.473 198.574 353.474 198.573L353.475 198.57L353.479 198.556L353.496 198.503L353.564 198.291L353.829 197.459C354.063 196.726 354.408 195.643 354.854 194.242C355.747 191.44 357.042 187.364 358.657 182.271C361.887 172.085 366.392 157.829 371.493 141.551C381.696 108.996 394.287 68.3454 403.835 35.9767L401.917 35.4108ZM378.675 141.697C386.263 108.897 396.535 67.8841 407.264 35.1001L409.165 35.7222C398.464 68.4193 388.208 109.362 380.624 142.148C376.833 158.538 373.711 172.882 371.537 183.128C370.45 188.251 369.6 192.35 369.022 195.167C368.732 196.576 368.511 197.664 368.363 198.4C368.288 198.768 368.232 199.048 368.194 199.236L368.152 199.448L368.141 199.502L368.138 199.515L368.138 199.518C368.137 199.519 368.137 199.519 367.157 199.324C366.176 199.128 366.176 199.128 366.176 199.127L366.177 199.123L366.18 199.11L366.19 199.056L366.233 198.842L366.292 198.55L366.402 198.004C366.551 197.266 366.773 196.176 367.062 194.765C367.641 191.944 368.492 187.841 369.58 182.713C371.756 172.457 374.881 158.101 378.675 141.697ZM412.612 34.7907C400.691 68.0058 392.74 109.396 387.769 142.445C385.282 158.978 383.539 173.437 382.418 183.765C381.857 188.929 381.452 193.06 381.187 195.901C381.054 197.322 380.956 198.42 380.892 199.163C380.869 199.433 380.85 199.655 380.835 199.83L380.82 200.008L380.802 200.224L380.797 200.278L380.796 200.292L380.796 200.296C380.796 200.297 380.796 200.297 381.793 200.378C382.334 200.421 382.581 200.441 382.694 200.45C382.79 200.458 382.79 200.457 382.79 200.457L382.79 200.454L382.791 200.441L382.795 200.387L382.813 200.175C382.829 199.987 382.852 199.706 382.884 199.336C382.949 198.597 383.046 197.503 383.178 196.087C383.442 193.255 383.847 189.134 384.406 183.981C385.525 173.674 387.265 159.243 389.746 142.743C394.712 109.729 402.641 68.4941 414.495 35.4663L412.612 34.7907ZM396.872 143.2C399.226 109.899 404.85 68.1326 417.961 34.4868L419.825 35.213C406.824 68.5745 401.217 110.101 398.867 143.341C397.693 159.95 397.333 174.47 397.267 184.836C397.235 190.018 397.275 194.162 397.324 197.009C397.348 198.432 397.374 199.531 397.395 200.274C397.401 200.515 397.407 200.719 397.412 200.884C397.415 200.972 397.417 201.05 397.419 201.116L397.426 201.329L397.428 201.382L397.429 201.395L397.429 201.398C397.429 201.399 397.429 201.399 396.43 201.436C395.43 201.472 395.43 201.472 395.43 201.471L395.43 201.467L395.43 201.453L395.428 201.397L395.42 201.18C395.419 201.12 395.416 201.052 395.414 200.975C395.412 200.921 395.411 200.863 395.409 200.802C395.406 200.715 395.403 200.62 395.401 200.516C395.399 200.456 395.397 200.394 395.395 200.328C395.375 199.579 395.348 198.473 395.324 197.043C395.275 194.182 395.234 190.023 395.268 184.823C395.334 174.424 395.694 159.861 396.872 143.2ZM423.31 34.1802C409.005 68.2532 405.715 110.397 405.98 143.949C406.112 160.739 407.136 175.405 408.126 185.876C408.622 191.111 409.109 195.299 409.472 198.179C409.654 199.619 409.805 200.732 409.911 201.487C409.963 201.864 410.005 202.151 410.033 202.345C410.04 202.393 410.046 202.435 410.052 202.471L410.066 202.564L410.074 202.621L410.076 202.635L410.077 202.639C410.077 202.639 410.077 202.64 410.282 202.609C410.423 202.587 410.662 202.551 411.066 202.489C412.054 202.339 412.054 202.338 412.054 202.338L412.054 202.335L412.052 202.322L412.044 202.269C412.037 202.221 412.026 202.15 412.012 202.055C411.984 201.866 411.943 201.582 411.891 201.209C411.787 200.464 411.637 199.359 411.457 197.928C411.095 195.067 410.611 190.9 410.118 185.687C409.131 175.261 408.112 160.653 407.98 143.933C407.715 110.466 411.008 68.649 425.154 34.9544L423.31 34.1802Z" fill="url(#paint1_linear_43_19857)"/>
<path fill-rule="evenodd" clip-rule="evenodd" d="M-28.996 104.797C-34.2874 111.529 -37.3918 118.314 -37.7391 125.067L-39.7364 124.964C-39.3609 117.66 -36.0138 110.489 -30.5684 103.561C-25.1217 96.6316 -17.5307 89.8867 -8.55547 83.418C9.39468 70.4808 33.0186 58.5517 56.501 48.4024C79.993 38.2489 103.389 29.8576 120.907 24.0054C129.668 21.0789 136.961 18.7866 142.066 17.2256C144.618 16.4451 146.623 15.8474 147.99 15.4446C148.674 15.2432 149.199 15.0906 149.553 14.9882C149.73 14.937 149.864 14.8983 149.954 14.8724L150.056 14.8432L150.082 14.8358L150.089 14.8339C150.09 14.8334 150.091 14.8332 150.365 15.795C150.639 16.7568 150.638 16.757 150.637 16.7574L150.631 16.7591L150.606 16.7662L150.506 16.7948C150.417 16.8203 150.284 16.8586 150.109 16.9093C149.758 17.0109 149.236 17.1627 148.555 17.3632C147.194 17.7641 145.196 18.3598 142.65 19.1382C137.56 20.695 130.283 22.9821 121.541 25.9024C104.055 31.7436 80.7168 40.1149 57.2945 50.2383C33.8626 60.3657 10.3916 72.2276 -7.38608 85.0405C-16.2747 91.4468 -23.7058 98.0666 -28.996 104.797ZM-12.9835 83.5581C-30.1146 96.7341 -41.7296 110.596 -43.021 124.264L-45.0122 124.076C-43.6352 109.502 -31.3783 95.1829 -14.2028 81.9728C3.03246 68.7167 25.4763 56.3857 47.7064 45.8428C69.9449 35.296 92.0108 26.5194 108.514 20.3805C116.766 17.3106 123.63 14.8994 128.431 13.2554C130.832 12.4333 132.718 11.803 134.004 11.378C134.647 11.1655 135.14 11.0043 135.472 10.8962C135.639 10.8421 135.765 10.8012 135.85 10.7739L135.946 10.743L135.97 10.7351L135.977 10.7331C135.978 10.7326 135.979 10.7324 136.284 11.6848C136.589 12.6372 136.588 12.6374 136.587 12.6377L136.581 12.6396L136.558 12.6471L136.464 12.6773C136.38 12.7042 136.256 12.7446 136.091 12.7982C135.761 12.9054 135.271 13.0655 134.631 13.277C133.352 13.6999 131.473 14.3279 129.079 15.1475C124.292 16.7868 117.445 19.1921 109.211 22.255C92.7413 28.3816 70.7328 37.1358 48.5634 47.6499C26.3855 58.168 4.08786 70.4281 -12.9835 83.5581ZM-48.3047 123.46C-46.4125 109.677 -34.9915 95.5611 -18.5789 82.0749C-2.21346 68.6274 18.9106 55.9693 39.8335 45.0611C60.7492 34.1568 81.4271 25.0201 96.8791 18.6086C104.604 15.4033 111.021 12.88 115.505 11.1584C117.747 10.2977 119.506 9.63741 120.704 9.19256C121.303 8.97014 121.761 8.80158 122.07 8.68876L122.227 8.6313L122.419 8.56155L122.506 8.52974L122.528 8.52186L122.534 8.51994C122.535 8.51953 122.535 8.51936 122.196 7.57861C121.857 6.63785 121.856 6.63812 121.855 6.63863L121.849 6.64074L121.826 6.64902L121.736 6.68163L121.633 6.71906L121.383 6.81046C121.071 6.92439 120.61 7.09409 120.007 7.3177C118.803 7.76492 117.038 8.42778 114.788 9.29131C110.29 11.0183 103.856 13.5482 96.1126 16.7613C80.627 23.1867 59.8925 32.348 38.909 43.2877C17.9327 54.2236 -3.32928 66.9557 -19.8487 80.5297C-36.321 94.0649 -48.2838 108.602 -50.2861 123.188L-48.3047 123.46ZM-24.1716 80.5896C-39.8676 94.3873 -51.0879 108.756 -53.5836 122.651L-55.5521 122.298C-52.9302 107.7 -41.2572 92.9459 -25.492 79.0874C-9.69012 65.1968 10.3887 52.0638 30.1103 40.7343C49.838 29.4013 69.2406 19.8547 83.7086 13.1422C90.9435 9.78555 96.9466 7.13661 101.142 5.32639C103.24 4.42126 104.886 3.72576 106.008 3.25626C106.569 3.02151 106.999 2.84326 107.289 2.72356L107.491 2.64056L107.619 2.58815L107.703 2.55386L107.724 2.54514L107.729 2.54291C107.731 2.54238 107.731 2.54209 108.108 3.46836C108.485 4.39464 108.485 4.39482 108.484 4.39524L108.479 4.39725L108.459 4.40553L108.377 4.43892C108.304 4.46864 108.196 4.51325 108.052 4.57248C107.765 4.69094 107.338 4.8679 106.78 5.1013C105.664 5.56812 104.025 6.26073 101.934 7.16274C97.7531 8.96682 91.7667 11.6084 84.5504 14.9565C70.1158 21.6534 50.7684 31.1734 31.1065 42.4686C11.4384 53.7673 -8.5121 66.8241 -24.1716 80.5896ZM-58.8703 121.845C-55.7674 107.838 -44.7523 93.2142 -29.7696 79.1027C-14.8149 65.0176 3.96361 51.5612 22.3782 39.8717C40.7878 28.1855 58.8058 18.2825 72.2237 11.3002C78.9319 7.80955 84.4884 5.04985 88.3667 3.16335C90.3058 2.22012 91.8253 1.49523 92.8593 1.00648C93.3763 0.762093 93.772 0.576752 94.038 0.452667C94.171 0.390625 94.2716 0.343895 94.3388 0.312759L94.4144 0.277786L94.4331 0.269135L94.4377 0.267029C94.4386 0.266594 94.439 0.266403 94.0207 -0.641884C93.6023 -1.55017 93.6017 -1.54987 93.6004 -1.54931L93.5953 -1.54695L93.5755 -1.5378L93.4978 -1.50182C93.4291 -1.47002 93.3271 -1.4226 93.1925 -1.35986C92.9235 -1.23437 92.5248 -1.04758 92.0046 -0.801704C90.9643 -0.309952 89.4381 0.418152 87.4919 1.36483C83.5995 3.25816 78.0267 6.02599 71.3005 9.52608C57.8497 16.5254 39.7786 26.4571 21.3064 38.1832C2.83928 49.906 -16.0565 63.4396 -31.1408 77.6468C-46.197 91.8275 -57.5855 106.798 -60.823 121.412L-58.8703 121.845ZM-35.3649 77.6166C-49.6369 92.0432 -60.4431 106.922 -64.1584 121.038L-66.0926 120.529C-62.2413 105.897 -51.1319 90.7106 -36.7867 76.21C-22.4204 61.6881 -4.70859 47.755 12.5031 35.6393C29.7188 23.5208 46.4572 13.2043 58.8901 5.91824C65.1072 2.27479 70.2494 -0.611885 73.8383 -2.58828C75.6329 -3.57649 77.0392 -4.3372 77.9975 -4.8512C78.4767 -5.10818 78.8439 -5.30351 79.0917 -5.43477C79.2155 -5.5004 79.3096 -5.55002 79.3728 -5.58331L79.4444 -5.62097L79.4626 -5.63055L79.4674 -5.63303C79.4685 -5.63362 79.4691 -5.63394 79.933 -4.74806C80.3969 -3.86217 80.3965 -3.86198 80.3957 -3.86153L80.3915 -3.85933L80.3743 -3.8503L80.3048 -3.81374C80.243 -3.78119 80.1504 -3.73235 80.028 -3.66748C79.7831 -3.53777 79.4189 -3.34404 78.9428 -3.08868C77.9906 -2.57798 76.5908 -1.82081 74.8031 -0.836357C71.2277 1.13258 66.1012 4.01044 59.9013 7.64376C47.5002 14.9112 30.8115 25.1974 13.6543 37.2748C-3.50706 49.355 -21.114 63.2113 -35.3649 77.6166ZM-69.4477 120.225C-65.1184 106.003 -54.5261 90.8683 -40.9633 76.1248C-27.416 61.3982 -10.9796 47.141 4.92953 34.6695C20.8356 22.2005 36.196 11.5309 47.5812 3.97807C53.2732 0.202026 57.9701 -2.79406 61.243 -4.84549C62.8794 -5.87119 64.1597 -6.66066 65.0302 -7.19334C65.4655 -7.45969 65.7984 -7.66182 66.022 -7.79716C66.1339 -7.86484 66.2185 -7.91582 66.2749 -7.94978L66.3383 -7.98793L66.3541 -7.99736L66.3579 -7.99965C66.3587 -8.00011 66.359 -8.00031 65.8453 -8.85831C65.3317 -9.71631 65.3311 -9.71596 65.3301 -9.71535L65.3258 -9.71275L65.3091 -9.70274L65.2436 -9.66339C65.1858 -9.62862 65.0999 -9.57683 64.9867 -9.50832C64.7602 -9.37129 64.4246 -9.16743 63.9864 -8.89934C63.11 -8.36311 61.8236 -7.56984 60.1808 -6.54012C56.8952 -4.4807 52.1836 -1.47525 46.4755 2.31146C35.0606 9.88412 19.6547 20.585 3.69565 33.0955C-12.2602 45.6036 -28.7877 59.9352 -42.4352 74.7708C-56.0672 89.5895 -66.9008 104.99 -71.361 119.642L-69.4477 120.225ZM-46.562 74.6356C-59.4172 89.6979 -69.7919 105.089 -74.7379 119.414L-76.6284 118.761C-71.5621 104.088 -61.0005 88.4721 -48.0832 73.3372C-35.155 58.1893 -19.8125 43.4604 -5.11308 30.5605C9.58862 17.6586 23.6614 6.57381 34.058 -1.28512C39.2568 -5.21495 43.5375 -8.33904 46.5196 -10.4814C48.0106 -11.5525 49.177 -12.3783 49.9713 -12.9367C50.3684 -13.2159 50.6725 -13.4283 50.8776 -13.571C50.9802 -13.6424 51.058 -13.6964 51.1103 -13.7326L51.1696 -13.7737L51.1847 -13.7841L51.1886 -13.7868C51.1895 -13.7874 51.1901 -13.7878 51.7577 -12.9645C52.3253 -12.1412 52.325 -12.141 52.3242 -12.1405L52.3208 -12.1381L52.3066 -12.1283L52.2491 -12.0885C52.198 -12.0531 52.1215 -12 52.0202 -11.9295C51.8176 -11.7885 51.5161 -11.5779 51.1216 -11.3006C50.3326 -10.7459 49.1717 -9.92406 47.6865 -8.85707C44.716 -6.72304 40.4484 -3.60858 35.264 0.310341C24.8943 8.1489 10.8615 19.2024 -3.79387 32.0637C-18.4516 44.9271 -33.7178 59.5862 -46.562 74.6356ZM-80.0226 118.602C-68.8696 89.6982 -39.3592 56.0018 -12.5076 29.4507C0.89743 16.1958 13.6026 4.75709 22.9568 -3.36801C27.6335 -7.43025 31.4718 -10.6634 34.1399 -12.8804C35.474 -13.9888 36.5155 -14.8431 37.223 -15.42C37.5767 -15.7084 37.8469 -15.9274 38.0285 -16.0741L38.2336 -16.2396L38.2851 -16.281L38.2978 -16.2912L38.3009 -16.2937C38.3016 -16.2942 38.3018 -16.2944 37.6764 -17.0747C37.051 -17.855 37.0506 -17.8546 37.0497 -17.854L37.0462 -17.8512L37.0327 -17.8403L36.9797 -17.7977C36.9328 -17.76 36.8632 -17.7038 36.7713 -17.6296C36.6855 -17.5602 36.5802 -17.475 36.4561 -17.3743C36.3626 -17.2984 36.2585 -17.2138 36.1438 -17.1205L35.9592 -16.97C35.2472 -16.3895 34.2009 -15.5313 32.8618 -14.4187C30.1837 -12.1935 26.3342 -8.95082 21.6452 -4.87794C12.268 3.2672 -0.470444 14.7357 -13.9138 28.0286C-40.7589 54.5732 -70.5646 88.5353 -81.8885 117.882L-80.0226 118.602ZM-21.23 26.8287C-45.5676 54.1565 -72.923 88.6951 -85.3144 117.784L-87.1544 117.001C-74.6231 87.5828 -47.0668 52.8327 -22.7236 25.4986C-10.5386 11.8165 0.865585 -0.0338898 9.22351 -8.46385C13.4027 -12.6791 16.8209 -16.0397 19.195 -18.3473C20.3821 -19.501 21.3082 -20.3916 21.9379 -20.994C22.2528 -21.2953 22.4935 -21.5245 22.6558 -21.6786L22.8398 -21.853L22.8865 -21.8973L22.8985 -21.9085L22.9015 -21.9114C22.9022 -21.9121 22.9026 -21.9125 23.5888 -21.185C24.2749 -20.4575 24.2746 -20.4572 24.274 -20.4567L24.2713 -20.4541L24.26 -20.4435L24.2145 -20.4004L24.0331 -20.2284C23.8726 -20.0759 23.6335 -19.8484 23.3205 -19.5489C22.6944 -18.9499 21.7721 -18.063 20.589 -16.9131C18.2227 -14.6132 14.8134 -11.2613 10.6438 -7.05573C2.30408 1.35586 -9.07451 13.1797 -21.23 26.8287ZM-90.6068 116.969C-76.9734 87.6991 -51.7808 52.315 -29.953 24.2066C-19.0467 10.1621 -8.9944 -2.04852 -1.66876 -10.7478C1.9939 -15.0973 4.97455 -18.5685 7.03903 -20.9518C8.07126 -22.1435 8.87442 -23.0631 9.41925 -23.6845C9.69167 -23.9952 9.89949 -24.2314 10.0391 -24.3897L10.1968 -24.5683L10.2364 -24.6131L10.2463 -24.6242L10.2487 -24.627C10.2492 -24.6275 10.2494 -24.6278 9.50108 -25.2911C8.75278 -25.9545 8.75244 -25.9541 8.75183 -25.9534L8.74919 -25.9504L8.73891 -25.9388L8.69843 -25.8931L8.53891 -25.7124C8.43959 -25.5997 8.30627 -25.4483 8.14026 -25.2593L7.91542 -25.003C7.36809 -24.3788 6.56229 -23.4561 5.52731 -22.2613C3.4574 -19.8717 0.470657 -16.3934 -3.19859 -12.0361C-10.5368 -3.32184 -20.6064 8.90974 -31.5327 22.9799C-53.3699 51.1006 -78.6844 86.6356 -92.4198 116.125L-90.6068 116.969ZM-38.6752 21.5786C-57.9954 50.4715 -81.0181 86.704 -95.8996 116.152L-97.6847 115.25C-82.7452 85.6873 -59.6652 49.3706 -40.3378 20.4669C-30.6708 6.0101 -21.9363 -6.60135 -15.6185 -15.5988C-12.4596 -20.0976 -9.9046 -23.6931 -8.13911 -26.1643C-7.25636 -27.3999 -6.57097 -28.3544 -6.10611 -29.0003C-5.87369 -29.3232 -5.6964 -29.569 -5.57713 -29.7341L-5.44212 -29.9209L-5.40794 -29.9681L-5.39931 -29.98L-5.39711 -29.983C-5.39661 -29.9837 -5.39635 -29.9841 -4.58661 -29.3973C-3.77687 -28.8105 -3.77707 -28.8102 -3.77753 -28.8096L-3.7796 -28.8067L-3.78801 -28.7951L-3.82173 -28.7485L-3.95581 -28.563C-4.07445 -28.3988 -4.2511 -28.1539 -4.48286 -27.8319C-4.94641 -27.1879 -5.63043 -26.2353 -6.51175 -25.0017C-8.27441 -22.5345 -10.8262 -18.9434 -13.9818 -14.4494C-20.293 -5.4614 -29.0185 7.13722 -38.6752 21.5786ZM-101.186 115.33C-85.0571 85.7058 -64.2113 48.621 -47.3961 18.9392C-38.9888 4.0989 -31.5898 -8.88959 -26.2926 -18.168C-23.644 -22.8071 -21.5209 -26.5188 -20.06 -29.0705C-19.3295 -30.3464 -18.7646 -31.3323 -18.3823 -31.9992L-17.948 -32.7567L-17.8376 -32.9492L-17.8098 -32.9977L-17.8028 -33.0099L-17.8011 -33.0129C-17.8007 -33.0136 -17.8005 -33.0139 -18.6678 -33.5116C-19.5352 -34.0094 -19.5354 -34.009 -19.5358 -34.0083L-19.5375 -34.0053L-19.5445 -33.9931L-19.5724 -33.9445L-19.6829 -33.7518L-20.1175 -32.9938C-20.4999 -32.3266 -21.065 -31.3404 -21.7957 -30.0642C-23.257 -27.5118 -25.3805 -23.7995 -28.0295 -19.1596C-33.3275 -9.87973 -40.7276 3.11073 -49.1362 17.9533C-65.9526 47.6373 -86.8052 84.734 -102.943 114.373L-101.186 115.33ZM-56.127 16.3009C-70.4381 46.7741 -89.1002 84.7126 -106.48 114.51L-108.207 113.502C-90.8739 83.784 -72.2421 45.9106 -57.9373 15.4508C-50.7865 0.224152 -44.7199 -13.1436 -40.4411 -22.7044C-38.3018 -27.4847 -36.6095 -31.3132 -35.4521 -33.9462C-34.8735 -35.2626 -34.4286 -36.2803 -34.1284 -36.9686C-33.9783 -37.3127 -33.8644 -37.5746 -33.7881 -37.7502L-33.702 -37.9487L-33.6803 -37.9986L-33.6749 -38.011L-33.6736 -38.0141C-33.6733 -38.0148 -33.6732 -38.0151 -32.7555 -37.6178C-31.8378 -37.2205 -31.838 -37.2201 -31.8383 -37.2194L-31.8397 -37.2162L-31.8452 -37.2034L-31.8671 -37.1529L-31.9538 -36.9533L-32.0726 -36.6799L-32.2952 -36.1691C-32.5961 -35.4791 -33.0417 -34.4597 -33.6212 -33.1414C-34.7802 -30.5047 -36.4743 -26.6722 -38.6156 -21.8874C-42.8982 -12.3181 -48.97 1.06103 -56.127 16.3009ZM-111.773 113.688C-93.138 83.7202 -76.6659 44.9258 -64.8603 13.6586C-58.9549 -1.98189 -54.2122 -15.7525 -50.9455 -25.6136C-49.3122 -30.5444 -48.0477 -34.4982 -47.1913 -37.2201C-46.7632 -38.581 -46.437 -39.6341 -46.2177 -40.3473C-46.1382 -40.6059 -46.0728 -40.8197 -46.0217 -40.9875L-45.9696 -41.1584L-45.9068 -41.3653L-45.891 -41.4178L-45.887 -41.4312L-45.8859 -41.4346C-45.8857 -41.4355 -45.8855 -41.4359 -46.8432 -41.724C-47.363 -41.8804 -47.6007 -41.9518 -47.7094 -41.9843C-47.8009 -42.0116 -47.8009 -42.0114 -47.801 -42.0111L-47.802 -42.0081L-47.8058 -41.9954L-47.8212 -41.9443L-47.8831 -41.7402C-47.9381 -41.5594 -48.0204 -41.2896 -48.1294 -40.935C-48.3475 -40.2258 -48.6723 -39.1769 -49.0992 -37.8203C-49.9528 -35.1071 -51.2142 -31.1629 -52.8441 -26.2426C-56.104 -16.4015 -60.8376 -2.65744 -66.7314 12.9522C-78.5241 44.1853 -94.9415 82.8331 -113.471 112.632L-111.773 113.688ZM-73.6015 11.008C-82.9012 43.0702 -97.177 82.7223 -117.066 112.861L-118.736 111.76C-99.0144 81.8754 -84.8052 42.4551 -75.5224 10.4508C-70.8839 -5.541 -67.4813 -19.6606 -65.2385 -29.7812C-64.1172 -34.8413 -63.2859 -38.9009 -62.7352 -41.6943C-62.4599 -43.0909 -62.2547 -44.1709 -62.1185 -44.901C-62.0742 -45.1386 -62.0372 -45.3391 -62.0074 -45.5015C-61.9914 -45.5886 -61.9775 -45.6647 -61.9657 -45.7296L-61.9279 -45.9393L-61.9185 -45.9916L-61.9162 -46.0045L-61.9157 -46.0076C-61.9156 -46.0082 -61.9155 -46.0084 -60.9308 -45.8342C-59.9461 -45.66 -59.9462 -45.6595 -59.9464 -45.6586L-59.947 -45.655L-59.9495 -45.641L-59.9593 -45.5864L-59.9979 -45.3722C-60.0086 -45.3136 -60.0209 -45.2462 -60.0348 -45.1701C-60.0444 -45.1176 -60.0549 -45.0609 -60.0661 -45C-60.0818 -44.9145 -60.0991 -44.8208 -60.118 -44.7192C-60.129 -44.6602 -60.1404 -44.5985 -60.1524 -44.5342C-60.2898 -43.7977 -60.4963 -42.711 -60.773 -41.3074C-61.3264 -38.5003 -62.1608 -34.4252 -63.2859 -29.3485C-65.5358 -19.1957 -68.9487 -5.03348 -73.6015 11.008ZM-122.36 112.037C-101.214 81.7311 -89.1405 41.2197 -82.3487 8.3614C-78.95 -8.08124 -76.8685 -22.6353 -75.6364 -33.0799C-75.0203 -38.3026 -74.6165 -42.4988 -74.3667 -45.3912C-74.2417 -46.8374 -74.1553 -47.9576 -74.1 -48.7173C-74.0723 -49.0972 -74.0525 -49.3869 -74.0395 -49.5822C-74.0363 -49.6303 -74.0335 -49.6727 -74.0311 -49.7093L-74.0251 -49.8036L-74.0215 -49.8602L-74.0206 -49.8748L-74.0204 -49.8786C-74.0204 -49.8792 -74.0204 -49.8796 -74.2271 -49.8923C-74.3698 -49.9011 -74.6109 -49.9158 -75.0185 -49.9404C-76.0167 -50.0006 -76.0167 -50.0004 -76.0167 -49.9998L-76.0169 -49.9968L-76.0177 -49.9837L-76.0211 -49.9301C-76.0241 -49.8823 -76.0287 -49.8103 -76.0351 -49.7147C-76.0478 -49.5236 -76.0674 -49.2381 -76.0947 -48.8625C-76.1494 -48.1114 -76.2351 -47.0001 -76.3593 -45.5633C-76.6075 -42.6897 -77.0092 -38.5142 -77.6226 -33.3142C-78.8495 -22.9133 -80.9227 -8.41769 -84.3073 7.95655C-91.082 40.7321 -103.089 80.9232 -124 110.893L-122.36 112.037Z" fill="url(#paint2_linear_43_19857)"/>
<path d="M30.846 37.83H26.59L25.806 40H24.462L27.99 30.298H29.46L32.974 40H31.63L30.846 37.83ZM30.482 36.794L28.718 31.866L26.954 36.794H30.482ZM35.5056 33.742C35.7576 33.3033 36.1309 32.9393 36.6256 32.65C37.1296 32.3513 37.7129 32.202 38.3756 32.202C39.0569 32.202 39.6729 32.3653 40.2236 32.692C40.7836 33.0187 41.2223 33.4807 41.5396 34.078C41.8569 34.666 42.0156 35.352 42.0156 36.136C42.0156 36.9107 41.8569 37.6013 41.5396 38.208C41.2223 38.8147 40.7836 39.286 40.2236 39.622C39.6729 39.958 39.0569 40.126 38.3756 40.126C37.7223 40.126 37.1436 39.9813 36.6396 39.692C36.1449 39.3933 35.7669 39.0247 35.5056 38.586V43.64H34.2316V32.328H35.5056V33.742ZM40.7136 36.136C40.7136 35.5573 40.5969 35.0533 40.3636 34.624C40.1303 34.1947 39.8129 33.868 39.4116 33.644C39.0196 33.42 38.5856 33.308 38.1096 33.308C37.6429 33.308 37.2089 33.4247 36.8076 33.658C36.4156 33.882 36.0983 34.2133 35.8556 34.652C35.6223 35.0813 35.5056 35.5807 35.5056 36.15C35.5056 36.7287 35.6223 37.2373 35.8556 37.676C36.0983 38.1053 36.4156 38.4367 36.8076 38.67C37.2089 38.894 37.6429 39.006 38.1096 39.006C38.5856 39.006 39.0196 38.894 39.4116 38.67C39.8129 38.4367 40.1303 38.1053 40.3636 37.676C40.5969 37.2373 40.7136 36.724 40.7136 36.136ZM44.6865 33.574C44.9105 33.1353 45.2279 32.7947 45.6385 32.552C46.0585 32.3093 46.5672 32.188 47.1645 32.188V33.504H46.8285C45.4005 33.504 44.6865 34.2787 44.6865 35.828V40H43.4125V32.328H44.6865V33.574ZM51.7012 40.126C50.9825 40.126 50.3292 39.9627 49.7412 39.636C49.1625 39.3093 48.7052 38.8473 48.3692 38.25C48.0425 37.6433 47.8792 36.9433 47.8792 36.15C47.8792 35.366 48.0472 34.6753 48.3832 34.078C48.7285 33.4713 49.1952 33.0093 49.7832 32.692C50.3712 32.3653 51.0292 32.202 51.7572 32.202C52.4852 32.202 53.1432 32.3653 53.7312 32.692C54.3192 33.0093 54.7812 33.4667 55.1172 34.064C55.4625 34.6613 55.6352 35.3567 55.6352 36.15C55.6352 36.9433 55.4579 37.6433 55.1032 38.25C54.7579 38.8473 54.2865 39.3093 53.6892 39.636C53.0919 39.9627 52.4292 40.126 51.7012 40.126ZM51.7012 39.006C52.1585 39.006 52.5879 38.8987 52.9892 38.684C53.3905 38.4693 53.7125 38.1473 53.9552 37.718C54.2072 37.2887 54.3332 36.766 54.3332 36.15C54.3332 35.534 54.2119 35.0113 53.9692 34.582C53.7265 34.1527 53.4092 33.8353 53.0172 33.63C52.6252 33.4153 52.2005 33.308 51.7432 33.308C51.2765 33.308 50.8472 33.4153 50.4552 33.63C50.0725 33.8353 49.7645 34.1527 49.5312 34.582C49.2979 35.0113 49.1812 35.534 49.1812 36.15C49.1812 36.7753 49.2932 37.3027 49.5172 37.732C49.7505 38.1613 50.0585 38.4833 50.4412 38.698C50.8239 38.9033 51.2439 39.006 51.7012 39.006ZM59.8863 38.824L62.2663 32.328H63.6243L60.6143 40H59.1303L56.1203 32.328H57.4923L59.8863 38.824ZM71.5979 35.87C71.5979 36.1127 71.5839 36.3693 71.5559 36.64H65.4239C65.4706 37.396 65.7273 37.9887 66.1939 38.418C66.6699 38.838 67.2439 39.048 67.9159 39.048C68.4666 39.048 68.9239 38.922 69.2879 38.67C69.6613 38.4087 69.9226 38.0633 70.0719 37.634H71.4439C71.2386 38.3713 70.8279 38.9733 70.2119 39.44C69.5959 39.8973 68.8306 40.126 67.9159 40.126C67.1879 40.126 66.5346 39.9627 65.9559 39.636C65.3866 39.3093 64.9386 38.8473 64.6119 38.25C64.2853 37.6433 64.1219 36.9433 64.1219 36.15C64.1219 35.3567 64.2806 34.6613 64.5979 34.064C64.9153 33.4667 65.3586 33.0093 65.9279 32.692C66.5066 32.3653 67.1693 32.202 67.9159 32.202C68.6439 32.202 69.2879 32.3607 69.8479 32.678C70.4079 32.9953 70.8373 33.434 71.1359 33.994C71.4439 34.5447 71.5979 35.17 71.5979 35.87ZM70.2819 35.604C70.2819 35.1187 70.1746 34.7033 69.9599 34.358C69.7453 34.0033 69.4513 33.7373 69.0779 33.56C68.7139 33.3733 68.3079 33.28 67.8599 33.28C67.2159 33.28 66.6653 33.4853 66.2079 33.896C65.7599 34.3067 65.5033 34.876 65.4379 35.604H70.2819ZM73.6576 31.082C73.4149 31.082 73.2096 30.998 73.0416 30.83C72.8736 30.662 72.7896 30.4567 72.7896 30.214C72.7896 29.9713 72.8736 29.766 73.0416 29.598C73.2096 29.43 73.4149 29.346 73.6576 29.346C73.8909 29.346 74.0869 29.43 74.2456 29.598C74.4136 29.766 74.4976 29.9713 74.4976 30.214C74.4976 30.4567 74.4136 30.662 74.2456 30.83C74.0869 30.998 73.8909 31.082 73.6576 31.082ZM74.2736 32.328V40H72.9996V32.328H74.2736ZM77.7189 33.378V37.9C77.7189 38.2733 77.7982 38.5393 77.9569 38.698C78.1155 38.8473 78.3909 38.922 78.7829 38.922H79.7209V40H78.5729C77.8635 40 77.3315 39.8367 76.9769 39.51C76.6222 39.1833 76.4449 38.6467 76.4449 37.9V33.378H75.4509V32.328H76.4449V30.396H77.7189V32.328H79.7209V33.378H77.7189ZM87.9845 35.87C87.9845 36.1127 87.9705 36.3693 87.9425 36.64H81.8105C81.8571 37.396 82.1138 37.9887 82.5805 38.418C83.0565 38.838 83.6305 39.048 84.3025 39.048C84.8531 39.048 85.3105 38.922 85.6745 38.67C86.0478 38.4087 86.3091 38.0633 86.4585 37.634H87.8305C87.6251 38.3713 87.2145 38.9733 86.5985 39.44C85.9825 39.8973 85.2171 40.126 84.3025 40.126C83.5745 40.126 82.9211 39.9627 82.3425 39.636C81.7731 39.3093 81.3251 38.8473 80.9985 38.25C80.6718 37.6433 80.5085 36.9433 80.5085 36.15C80.5085 35.3567 80.6671 34.6613 80.9845 34.064C81.3018 33.4667 81.7451 33.0093 82.3145 32.692C82.8931 32.3653 83.5558 32.202 84.3025 32.202C85.0305 32.202 85.6745 32.3607 86.2345 32.678C86.7945 32.9953 87.2238 33.434 87.5225 33.994C87.8305 34.5447 87.9845 35.17 87.9845 35.87ZM86.6685 35.604C86.6685 35.1187 86.5611 34.7033 86.3465 34.358C86.1318 34.0033 85.8378 33.7373 85.4645 33.56C85.1005 33.3733 84.6945 33.28 84.2465 33.28C83.6025 33.28 83.0518 33.4853 82.5945 33.896C82.1465 34.3067 81.8898 34.876 81.8245 35.604H86.6685Z" fill="#0D0D12"/>
<path d="M34.912 61.88C38.2187 61.88 40.7787 62.7973 42.592 64.632C44.4053 66.4453 45.312 69.048 45.312 72.44C45.312 75.8107 44.4053 78.4133 42.592 80.248C40.7787 82.0827 38.2187 83 34.912 83H26.752V61.88H34.912ZM34.688 79.48C36.6933 79.48 38.1973 78.8827 39.2 77.688C40.224 76.472 40.736 74.7227 40.736 72.44C40.736 70.1573 40.224 68.4187 39.2 67.224C38.1973 66.008 36.6933 65.4 34.688 65.4H31.168V79.48H34.688ZM56.728 83.32C55.0427 83.32 53.5707 82.9893 52.312 82.328C51.0747 81.6667 50.1147 80.7173 49.432 79.48C48.7493 78.2427 48.408 76.7493 48.408 75C48.408 73.2507 48.7493 71.7573 49.432 70.52C50.1147 69.2827 51.064 68.3333 52.28 67.672C53.5173 67.0107 54.9253 66.68 56.504 66.68C58.1253 66.68 59.5013 67.0107 60.632 67.672C61.7627 68.312 62.6267 69.1973 63.224 70.328C63.8213 71.4373 64.12 72.7067 64.12 74.136C64.12 74.5627 64.1093 74.968 64.088 75.352C64.0667 75.736 64.0347 76.0773 63.992 76.376H51.224V73.336H62.072L59.96 74.104C59.96 72.76 59.6507 71.7253 59.032 71C58.4347 70.2747 57.5813 69.912 56.472 69.912C55.6613 69.912 54.9573 70.104 54.36 70.488C53.784 70.872 53.3467 71.448 53.048 72.216C52.7493 72.9627 52.6 73.912 52.6 75.064C52.6 76.1947 52.76 77.1333 53.08 77.88C53.4213 78.6053 53.8907 79.1493 54.488 79.512C55.1067 79.8747 55.8427 80.056 56.696 80.056C57.6347 80.056 58.392 79.8747 58.968 79.512C59.544 79.1493 59.992 78.648 60.312 78.008L63.8 79.352C63.4587 80.184 62.936 80.8987 62.232 81.496C61.5493 82.0933 60.728 82.552 59.768 82.872C58.8293 83.1707 57.816 83.32 56.728 83.32ZM74.2353 83.32C72.6139 83.32 71.1313 83.032 69.7873 82.456C68.4646 81.88 67.3873 81.0693 66.5553 80.024L69.0833 77.464C69.5953 78.232 70.2779 78.8613 71.1313 79.352C71.9846 79.8427 72.9979 80.088 74.1713 80.088C75.0033 80.088 75.6646 79.9707 76.1553 79.736C76.6673 79.48 76.9233 79.0853 76.9233 78.552C76.9233 78.2107 76.8059 77.9227 76.5713 77.688C76.3366 77.432 75.8673 77.2293 75.1633 77.08L72.3473 76.504C70.4913 76.12 69.1686 75.544 68.3793 74.776C67.6113 73.9867 67.2273 72.9733 67.2273 71.736C67.2273 70.8613 67.4833 70.04 67.9953 69.272C68.5286 68.504 69.3179 67.8853 70.3633 67.416C71.4086 66.9253 72.7099 66.68 74.2673 66.68C75.8673 66.68 77.2539 66.936 78.4273 67.448C79.6219 67.9387 80.5606 68.6747 81.2433 69.656L78.6193 72.216C78.1499 71.4693 77.5313 70.904 76.7633 70.52C76.0166 70.1147 75.2273 69.912 74.3953 69.912C73.7979 69.912 73.2859 69.976 72.8593 70.104C72.4326 70.232 72.1126 70.4133 71.8993 70.648C71.6859 70.8613 71.5793 71.1387 71.5793 71.48C71.5793 71.8213 71.7286 72.12 72.0273 72.376C72.3259 72.6107 72.8699 72.8133 73.6593 72.984L76.9233 73.656C78.5019 73.976 79.6326 74.52 80.3153 75.288C80.9979 76.0347 81.3393 76.9413 81.3393 78.008C81.3393 79.032 81.0619 79.9493 80.5073 80.76C79.9739 81.5493 79.1739 82.1787 78.1073 82.648C77.0619 83.096 75.7713 83.32 74.2353 83.32ZM92.0368 66.68C93.4661 66.68 94.6714 66.8933 95.6528 67.32C96.6554 67.7253 97.4554 68.2907 98.0528 69.016C98.6714 69.72 99.1088 70.5093 99.3647 71.384L95.2688 72.856C95.0554 71.896 94.6928 71.1707 94.1808 70.68C93.6688 70.1893 92.9754 69.944 92.1008 69.944C91.2901 69.944 90.5968 70.136 90.0208 70.52C89.4448 70.8827 89.0074 71.448 88.7088 72.216C88.4101 72.9627 88.2608 73.9013 88.2608 75.032C88.2608 76.1627 88.4101 77.1013 88.7088 77.848C89.0288 78.5947 89.4768 79.1493 90.0528 79.512C90.6501 79.8747 91.3434 80.056 92.1328 80.056C92.7728 80.056 93.3168 79.9493 93.7648 79.736C94.2128 79.5013 94.5754 79.1707 94.8528 78.744C95.1514 78.3173 95.3541 77.8053 95.4608 77.208L99.4288 78.488C99.1941 79.448 98.7568 80.2907 98.1168 81.016C97.4768 81.7413 96.6554 82.3067 95.6528 82.712C94.6501 83.1173 93.4874 83.32 92.1648 83.32C90.5221 83.32 89.0714 82.9893 87.8128 82.328C86.5541 81.6667 85.5834 80.7173 84.9008 79.48C84.2181 78.2427 83.8768 76.7493 83.8768 75C83.8768 73.2507 84.2181 71.7573 84.9008 70.52C85.5834 69.2827 86.5434 68.3333 87.7808 67.672C89.0181 67.0107 90.4368 66.68 92.0368 66.68ZM110.131 66.68C111.753 66.68 113.171 67.0107 114.387 67.672C115.625 68.3333 116.585 69.2827 117.267 70.52C117.971 71.7573 118.323 73.2507 118.323 75C118.323 76.728 117.971 78.2213 117.267 79.48C116.585 80.7173 115.625 81.6667 114.387 82.328C113.171 82.9893 111.753 83.32 110.131 83.32C108.531 83.32 107.113 82.9893 105.875 82.328C104.638 81.6667 103.667 80.7173 102.963 79.48C102.281 78.2213 101.939 76.728 101.939 75C101.939 73.2507 102.281 71.7573 102.963 70.52C103.667 69.2827 104.638 68.3333 105.875 67.672C107.113 67.0107 108.531 66.68 110.131 66.68ZM110.131 69.944C109.321 69.944 108.627 70.136 108.051 70.52C107.497 70.8827 107.07 71.4373 106.771 72.184C106.473 72.9307 106.323 73.8693 106.323 75C106.323 76.1307 106.473 77.0693 106.771 77.816C107.07 78.5627 107.497 79.128 108.051 79.512C108.627 79.8747 109.321 80.056 110.131 80.056C110.921 80.056 111.593 79.8747 112.147 79.512C112.723 79.128 113.161 78.5627 113.459 77.816C113.758 77.0693 113.907 76.1307 113.907 75C113.907 73.8693 113.758 72.9307 113.459 72.184C113.161 71.4373 112.723 70.8827 112.147 70.52C111.593 70.136 110.921 69.944 110.131 69.944ZM121.992 83V67H125.928L126.184 71.8L125.64 71.288C125.896 70.2427 126.301 69.3787 126.856 68.696C127.41 68.0133 128.082 67.512 128.872 67.192C129.682 66.8507 130.568 66.68 131.528 66.68C132.637 66.68 133.618 66.8933 134.472 67.32C135.346 67.7467 136.029 68.3973 136.52 69.272C137.032 70.1253 137.288 71.2027 137.288 72.504V83H132.904V73.752C132.904 72.3867 132.637 71.448 132.104 70.936C131.57 70.4027 130.877 70.136 130.024 70.136C129.426 70.136 128.84 70.2853 128.264 70.584C127.709 70.8613 127.25 71.32 126.888 71.96C126.546 72.6 126.376 73.4533 126.376 74.52V83H121.992ZM147.343 62.104V77.784C147.343 78.552 147.535 79.1173 147.919 79.48C148.324 79.8213 148.868 79.992 149.551 79.992C150.084 79.992 150.554 79.9173 150.959 79.768C151.364 79.5973 151.727 79.3733 152.047 79.096L152.751 82.008C152.239 82.4133 151.599 82.7333 150.831 82.968C150.063 83.2027 149.252 83.32 148.399 83.32C147.332 83.32 146.383 83.16 145.551 82.84C144.74 82.52 144.1 82.008 143.631 81.304C143.183 80.6 142.959 79.6613 142.959 78.488V63.32L147.343 62.104ZM152.463 67V70.264H140.015V67H152.463ZM162.725 66.68C164.346 66.68 165.765 67.0107 166.981 67.672C168.218 68.3333 169.178 69.2827 169.861 70.52C170.565 71.7573 170.917 73.2507 170.917 75C170.917 76.728 170.565 78.2213 169.861 79.48C169.178 80.7173 168.218 81.6667 166.981 82.328C165.765 82.9893 164.346 83.32 162.725 83.32C161.125 83.32 159.706 82.9893 158.469 82.328C157.232 81.6667 156.261 80.7173 155.557 79.48C154.874 78.2213 154.533 76.728 154.533 75C154.533 73.2507 154.874 71.7573 155.557 70.52C156.261 69.2827 157.232 68.3333 158.469 67.672C159.706 67.0107 161.125 66.68 162.725 66.68ZM162.725 69.944C161.914 69.944 161.221 70.136 160.645 70.52C160.09 70.8827 159.664 71.4373 159.365 72.184C159.066 72.9307 158.917 73.8693 158.917 75C158.917 76.1307 159.066 77.0693 159.365 77.816C159.664 78.5627 160.09 79.128 160.645 79.512C161.221 79.8747 161.914 80.056 162.725 80.056C163.514 80.056 164.186 79.8747 164.741 79.512C165.317 79.128 165.754 78.5627 166.053 77.816C166.352 77.0693 166.501 76.1307 166.501 75C166.501 73.8693 166.352 72.9307 166.053 72.184C165.754 71.4373 165.317 70.8827 164.741 70.52C164.186 70.136 163.514 69.944 162.725 69.944ZM180.985 83.32C179.364 83.32 177.881 83.032 176.537 82.456C175.215 81.88 174.137 81.0693 173.305 80.024L175.833 77.464C176.345 78.232 177.028 78.8613 177.881 79.352C178.735 79.8427 179.748 80.088 180.921 80.088C181.753 80.088 182.415 79.9707 182.905 79.736C183.417 79.48 183.673 79.0853 183.673 78.552C183.673 78.2107 183.556 77.9227 183.321 77.688C183.087 77.432 182.617 77.2293 181.913 77.08L179.097 76.504C177.241 76.12 175.919 75.544 175.129 74.776C174.361 73.9867 173.977 72.9733 173.977 71.736C173.977 70.8613 174.233 70.04 174.745 69.272C175.279 68.504 176.068 67.8853 177.113 67.416C178.159 66.9253 179.46 66.68 181.017 66.68C182.617 66.68 184.004 66.936 185.177 67.448C186.372 67.9387 187.311 68.6747 187.993 69.656L185.369 72.216C184.9 71.4693 184.281 70.904 183.513 70.52C182.767 70.1147 181.977 69.912 181.145 69.912C180.548 69.912 180.036 69.976 179.609 70.104C179.183 70.232 178.863 70.4133 178.649 70.648C178.436 70.8613 178.329 71.1387 178.329 71.48C178.329 71.8213 178.479 72.12 178.777 72.376C179.076 72.6107 179.62 72.8133 180.409 72.984L183.673 73.656C185.252 73.976 186.383 74.52 187.065 75.288C187.748 76.0347 188.089 76.9413 188.089 78.008C188.089 79.032 187.812 79.9493 187.257 80.76C186.724 81.5493 185.924 82.1787 184.857 82.648C183.812 83.096 182.521 83.32 180.985 83.32Z" fill="white"/>
<path opacity="0.5" d="M201.707 33.1377C220.171 34.3184 234.182 50.2433 233.001 68.7072V68.7072C231.821 87.171 215.896 101.182 197.432 100.001L164 97.8635L166.138 64.4317C167.318 45.9679 183.243 31.9571 201.707 33.1377V33.1377Z" fill="#D9D9D9"/>
<path d="M228.88 85.4C226.24 85.4 223.987 84.8533 222.12 83.76C220.28 82.64 219.013 81.04 218.32 78.96L223.52 76.68C223.707 77.64 224.013 78.44 224.44 79.08C224.867 79.6933 225.44 80.16 226.16 80.48C226.907 80.8 227.787 80.96 228.8 80.96C229.707 80.96 230.467 80.8 231.08 80.48C231.72 80.16 232.213 79.7067 232.56 79.12C232.907 78.5333 233.08 77.8667 233.08 77.12C233.08 76.32 232.92 75.6667 232.6 75.16C232.307 74.6533 231.853 74.2933 231.24 74.08C230.627 73.84 229.853 73.72 228.92 73.72C228.573 73.72 228.24 73.7333 227.92 73.76C227.627 73.76 227.293 73.7867 226.92 73.84V69.8C227.133 69.8267 227.347 69.8533 227.56 69.88C227.8 69.88 228.04 69.88 228.28 69.88C229.773 69.88 230.84 69.5867 231.48 69C232.147 68.3867 232.48 67.4133 232.48 66.08C232.48 64.9867 232.147 64.1467 231.48 63.56C230.84 62.9467 229.92 62.64 228.72 62.64C227.44 62.64 226.427 62.96 225.68 63.6C224.933 64.2133 224.413 65.16 224.12 66.44L219.2 64.6C219.52 63.2667 220.133 62.12 221.04 61.16C221.973 60.2 223.12 59.4667 224.48 58.96C225.84 58.4267 227.347 58.16 229 58.16C230.973 58.16 232.613 58.4667 233.92 59.08C235.253 59.6933 236.253 60.5333 236.92 61.6C237.613 62.6667 237.96 63.8933 237.96 65.28C237.96 66.3733 237.787 67.3067 237.44 68.08C237.12 68.8267 236.693 69.4667 236.16 70C235.653 70.5067 235.12 70.8933 234.56 71.16C234 71.4267 233.48 71.5867 233 71.64V71.76C233.613 71.7867 234.24 71.92 234.88 72.16C235.52 72.3733 236.107 72.7067 236.64 73.16C237.2 73.6133 237.653 74.2 238 74.92C238.347 75.6133 238.52 76.44 238.52 77.4C238.52 79 238.093 80.4133 237.24 81.64C236.413 82.84 235.28 83.7733 233.84 84.44C232.4 85.08 230.747 85.4 228.88 85.4ZM253.275 85.4C249.888 85.4 247.275 84.2533 245.435 81.96C243.621 79.6667 242.715 76.28 242.715 71.8C242.715 67.32 243.621 63.9333 245.435 61.64C247.275 59.3467 249.888 58.2 253.275 58.2C256.661 58.2 259.261 59.3467 261.075 61.64C262.915 63.9333 263.835 67.32 263.835 71.8C263.835 76.28 262.915 79.6667 261.075 81.96C259.261 84.2533 256.661 85.4 253.275 85.4ZM253.275 80.96C254.421 80.96 255.355 80.64 256.075 80C256.821 79.3333 257.381 78.3333 257.755 77C258.128 75.64 258.315 73.9067 258.315 71.8C258.315 69.6933 258.128 67.9733 257.755 66.64C257.381 65.28 256.821 64.28 256.075 63.64C255.355 62.9733 254.421 62.64 253.275 62.64C252.128 62.64 251.181 62.9733 250.435 63.64C249.688 64.28 249.128 65.28 248.755 66.64C248.408 67.9733 248.235 69.6933 248.235 71.8C248.235 73.9067 248.408 75.64 248.755 77C249.128 78.3333 249.688 79.3333 250.435 80C251.181 80.64 252.128 80.96 253.275 80.96ZM273.064 85L290.864 58.6H295.264L277.464 85H273.064ZM274.384 58.2C275.824 58.2 277.064 58.5067 278.104 59.12C279.171 59.7333 279.984 60.6 280.544 61.72C281.131 62.84 281.424 64.1467 281.424 65.64C281.424 67.1333 281.131 68.44 280.544 69.56C279.984 70.6533 279.171 71.52 278.104 72.16C277.064 72.7733 275.824 73.08 274.384 73.08C272.971 73.08 271.731 72.7733 270.664 72.16C269.598 71.52 268.771 70.6533 268.184 69.56C267.624 68.44 267.344 67.1333 267.344 65.64C267.344 64.1467 267.624 62.84 268.184 61.72C268.771 60.6 269.598 59.7333 270.664 59.12C271.731 58.5067 272.971 58.2 274.384 58.2ZM274.384 62C273.798 62 273.291 62.1467 272.864 62.44C272.438 62.7067 272.118 63.12 271.904 63.68C271.691 64.2133 271.584 64.8667 271.584 65.64C271.584 66.3867 271.691 67.04 271.904 67.6C272.118 68.1333 272.438 68.5467 272.864 68.84C273.291 69.1067 273.798 69.24 274.384 69.24C274.998 69.24 275.504 69.1067 275.904 68.84C276.331 68.5467 276.651 68.1333 276.864 67.6C277.078 67.04 277.184 66.3867 277.184 65.64C277.184 64.8667 277.078 64.2133 276.864 63.68C276.651 63.12 276.331 62.7067 275.904 62.44C275.504 62.1467 274.998 62 274.384 62ZM293.904 70.52C295.318 70.52 296.544 70.84 297.584 71.48C298.651 72.0933 299.478 72.96 300.064 74.08C300.651 75.1733 300.944 76.4667 300.944 77.96C300.944 79.4533 300.651 80.76 300.064 81.88C299.478 83 298.651 83.8667 297.584 84.48C296.544 85.0933 295.318 85.4 293.904 85.4C292.491 85.4 291.251 85.0933 290.184 84.48C289.118 83.8667 288.291 83 287.704 81.88C287.144 80.76 286.864 79.4533 286.864 77.96C286.864 76.4667 287.144 75.1733 287.704 74.08C288.291 72.96 289.118 72.0933 290.184 71.48C291.251 70.84 292.491 70.52 293.904 70.52ZM293.904 74.36C293.291 74.36 292.771 74.5067 292.344 74.8C291.944 75.0667 291.638 75.4667 291.424 76C291.211 76.5333 291.104 77.1867 291.104 77.96C291.104 78.7067 291.211 79.36 291.424 79.92C291.638 80.48 291.944 80.9067 292.344 81.2C292.771 81.4667 293.291 81.6 293.904 81.6C294.518 81.6 295.024 81.4667 295.424 81.2C295.851 80.9067 296.171 80.48 296.384 79.92C296.598 79.36 296.704 78.7067 296.704 77.96C296.704 77.1867 296.598 76.5333 296.384 76C296.171 75.4667 295.851 75.0667 295.424 74.8C295.024 74.5067 294.518 74.36 293.904 74.36Z" fill="#0D0D12"/>
<path d="M57.82 129.8C59.8867 129.8 61.4867 130.373 62.62 131.52C63.7533 132.653 64.32 134.28 64.32 136.4C64.32 138.507 63.7533 140.133 62.62 141.28C61.4867 142.427 59.8867 143 57.82 143H52.72V129.8H57.82ZM57.68 140.8C58.9333 140.8 59.8733 140.427 60.5 139.68C61.14 138.92 61.46 137.827 61.46 136.4C61.46 134.973 61.14 133.887 60.5 133.14C59.8733 132.38 58.9333 132 57.68 132H55.48V140.8H57.68ZM71.455 143.2C70.4017 143.2 69.4817 142.993 68.695 142.58C67.9217 142.167 67.3217 141.573 66.895 140.8C66.4683 140.027 66.255 139.093 66.255 138C66.255 136.907 66.4683 135.973 66.895 135.2C67.3217 134.427 67.915 133.833 68.675 133.42C69.4483 133.007 70.3283 132.8 71.315 132.8C72.3283 132.8 73.1883 133.007 73.895 133.42C74.6017 133.82 75.1417 134.373 75.515 135.08C75.8883 135.773 76.075 136.567 76.075 137.46C76.075 137.727 76.0683 137.98 76.055 138.22C76.0417 138.46 76.0217 138.673 75.995 138.86H68.015V136.96H74.795L73.475 137.44C73.475 136.6 73.2817 135.953 72.895 135.5C72.5217 135.047 71.9883 134.82 71.295 134.82C70.7883 134.82 70.3483 134.94 69.975 135.18C69.615 135.42 69.3417 135.78 69.155 136.26C68.9683 136.727 68.875 137.32 68.875 138.04C68.875 138.747 68.975 139.333 69.175 139.8C69.3883 140.253 69.6817 140.593 70.055 140.82C70.4417 141.047 70.9017 141.16 71.435 141.16C72.0217 141.16 72.495 141.047 72.855 140.82C73.215 140.593 73.495 140.28 73.695 139.88L75.875 140.72C75.6617 141.24 75.335 141.687 74.895 142.06C74.4683 142.433 73.955 142.72 73.355 142.92C72.7683 143.107 72.135 143.2 71.455 143.2ZM77.817 143V141.24L82.257 136.12L83.397 134.98L81.737 135.02H77.857V133H86.437V134.76L82.017 139.86L80.877 141.02L82.697 140.98H86.597V143H77.817ZM93.4081 143.2C92.3548 143.2 91.4348 142.993 90.6481 142.58C89.8748 142.167 89.2748 141.573 88.8481 140.8C88.4215 140.027 88.2081 139.093 88.2081 138C88.2081 136.907 88.4215 135.973 88.8481 135.2C89.2748 134.427 89.8681 133.833 90.6281 133.42C91.4015 133.007 92.2815 132.8 93.2681 132.8C94.2815 132.8 95.1415 133.007 95.8481 133.42C96.5548 133.82 97.0948 134.373 97.4681 135.08C97.8415 135.773 98.0281 136.567 98.0281 137.46C98.0281 137.727 98.0215 137.98 98.0081 138.22C97.9948 138.46 97.9748 138.673 97.9481 138.86H89.9681V136.96H96.7481L95.4281 137.44C95.4281 136.6 95.2348 135.953 94.8481 135.5C94.4748 135.047 93.9415 134.82 93.2481 134.82C92.7415 134.82 92.3015 134.94 91.9281 135.18C91.5681 135.42 91.2948 135.78 91.1081 136.26C90.9215 136.727 90.8281 137.32 90.8281 138.04C90.8281 138.747 90.9281 139.333 91.1281 139.8C91.3415 140.253 91.6348 140.593 92.0081 140.82C92.3948 141.047 92.8548 141.16 93.3881 141.16C93.9748 141.16 94.4481 141.047 94.8081 140.82C95.1681 140.593 95.4481 140.28 95.6481 139.88L97.8281 140.72C97.6148 141.24 97.2881 141.687 96.8481 142.06C96.4215 142.433 95.9081 142.72 95.3081 142.92C94.7215 143.107 94.0881 143.2 93.4081 143.2ZM100.35 143V133H102.81L102.91 134.8C103.243 134.133 103.697 133.633 104.27 133.3C104.857 132.967 105.503 132.8 106.21 132.8C106.93 132.8 107.577 132.967 108.15 133.3C108.737 133.633 109.177 134.127 109.47 134.78C109.683 134.34 109.97 133.973 110.33 133.68C110.69 133.387 111.09 133.167 111.53 133.02C111.97 132.873 112.417 132.8 112.87 132.8C113.523 132.8 114.117 132.933 114.65 133.2C115.197 133.467 115.63 133.867 115.95 134.4C116.27 134.933 116.43 135.613 116.43 136.44V143H113.69V136.98C113.69 136.247 113.53 135.727 113.21 135.42C112.89 135.113 112.477 134.96 111.97 134.96C111.57 134.96 111.197 135.06 110.85 135.26C110.517 135.46 110.25 135.76 110.05 136.16C109.863 136.547 109.77 137.033 109.77 137.62V143H107.03V136.98C107.03 136.247 106.863 135.727 106.53 135.42C106.21 135.113 105.797 134.96 105.29 134.96C104.943 134.96 104.597 135.053 104.25 135.24C103.917 135.427 103.637 135.72 103.41 136.12C103.197 136.52 103.09 137.047 103.09 137.7V143H100.35ZM125.136 143.2C124.523 143.2 123.963 143.073 123.456 142.82C122.963 142.553 122.55 142.193 122.216 141.74C121.896 141.273 121.676 140.753 121.556 140.18L121.836 139.82L121.676 143H119.256V128.62H121.996V135.82L121.736 135.4C121.95 134.653 122.356 134.033 122.956 133.54C123.556 133.047 124.31 132.8 125.216 132.8C126.003 132.8 126.716 133.007 127.356 133.42C127.996 133.833 128.496 134.427 128.856 135.2C129.23 135.973 129.416 136.913 129.416 138.02C129.416 139.1 129.23 140.027 128.856 140.8C128.496 141.573 127.99 142.167 127.336 142.58C126.696 142.993 125.963 143.2 125.136 143.2ZM124.316 141.1C125.05 141.1 125.623 140.84 126.036 140.32C126.463 139.787 126.676 139.013 126.676 138C126.676 136.987 126.47 136.22 126.056 135.7C125.643 135.167 125.07 134.9 124.336 134.9C123.856 134.9 123.443 135.027 123.096 135.28C122.75 135.533 122.476 135.893 122.276 136.36C122.09 136.827 121.996 137.38 121.996 138.02C121.996 138.673 122.09 139.233 122.276 139.7C122.476 140.153 122.75 140.5 123.096 140.74C123.456 140.98 123.863 141.1 124.316 141.1ZM131.795 143V133H134.175L134.355 134.96C134.622 134.267 135.009 133.733 135.515 133.36C136.035 132.987 136.682 132.8 137.455 132.8C137.682 132.8 137.889 132.82 138.075 132.86C138.262 132.9 138.415 132.953 138.535 133.02L138.215 135.32C138.082 135.267 137.915 135.227 137.715 135.2C137.529 135.173 137.282 135.16 136.975 135.16C136.575 135.16 136.189 135.26 135.815 135.46C135.442 135.647 135.135 135.94 134.895 136.34C134.655 136.727 134.535 137.22 134.535 137.82V143H131.795ZM144.598 132.8C145.611 132.8 146.498 133.007 147.258 133.42C148.031 133.833 148.631 134.427 149.058 135.2C149.498 135.973 149.718 136.907 149.718 138C149.718 139.08 149.498 140.013 149.058 140.8C148.631 141.573 148.031 142.167 147.258 142.58C146.498 142.993 145.611 143.2 144.598 143.2C143.598 143.2 142.711 142.993 141.938 142.58C141.164 142.167 140.558 141.573 140.118 140.8C139.691 140.013 139.478 139.08 139.478 138C139.478 136.907 139.691 135.973 140.118 135.2C140.558 134.427 141.164 133.833 141.938 133.42C142.711 133.007 143.598 132.8 144.598 132.8ZM144.598 134.84C144.091 134.84 143.658 134.96 143.298 135.2C142.951 135.427 142.684 135.773 142.498 136.24C142.311 136.707 142.218 137.293 142.218 138C142.218 138.707 142.311 139.293 142.498 139.76C142.684 140.227 142.951 140.58 143.298 140.82C143.658 141.047 144.091 141.16 144.598 141.16C145.091 141.16 145.511 141.047 145.858 140.82C146.218 140.58 146.491 140.227 146.678 139.76C146.864 139.293 146.958 138.707 146.958 138C146.958 137.293 146.864 136.707 146.678 136.24C146.491 135.773 146.218 135.427 145.858 135.2C145.511 134.96 145.091 134.84 144.598 134.84Z" fill="white"/>
<path d="M31.084 109.242V110.278H28.424V119H27.15V110.278H24.476V109.242H31.084ZM35.7182 119.126C34.9996 119.126 34.3462 118.963 33.7582 118.636C33.1796 118.309 32.7222 117.847 32.3862 117.25C32.0596 116.643 31.8962 115.943 31.8962 115.15C31.8962 114.366 32.0642 113.675 32.4002 113.078C32.7456 112.471 33.2122 112.009 33.8002 111.692C34.3882 111.365 35.0462 111.202 35.7742 111.202C36.5022 111.202 37.1602 111.365 37.7482 111.692C38.3362 112.009 38.7982 112.467 39.1342 113.064C39.4796 113.661 39.6522 114.357 39.6522 115.15C39.6522 115.943 39.4749 116.643 39.1202 117.25C38.7749 117.847 38.3036 118.309 37.7062 118.636C37.1089 118.963 36.4462 119.126 35.7182 119.126ZM35.7182 118.006C36.1756 118.006 36.6049 117.899 37.0062 117.684C37.4076 117.469 37.7296 117.147 37.9722 116.718C38.2242 116.289 38.3502 115.766 38.3502 115.15C38.3502 114.534 38.2289 114.011 37.9862 113.582C37.7436 113.153 37.4262 112.835 37.0342 112.63C36.6422 112.415 36.2176 112.308 35.7602 112.308C35.2936 112.308 34.8642 112.415 34.4722 112.63C34.0896 112.835 33.7816 113.153 33.5482 113.582C33.3149 114.011 33.1982 114.534 33.1982 115.15C33.1982 115.775 33.3102 116.303 33.5342 116.732C33.7676 117.161 34.0756 117.483 34.4582 117.698C34.8409 117.903 35.2609 118.006 35.7182 118.006ZM40.5713 115.136C40.5713 114.352 40.73 113.666 41.0473 113.078C41.3646 112.481 41.7986 112.019 42.3493 111.692C42.9093 111.365 43.5346 111.202 44.2253 111.202C44.8226 111.202 45.378 111.342 45.8913 111.622C46.4046 111.893 46.7966 112.252 47.0673 112.7V108.64H48.3553V119H47.0673V117.558C46.8153 118.015 46.442 118.393 45.9473 118.692C45.4526 118.981 44.874 119.126 44.2113 119.126C43.53 119.126 42.9093 118.958 42.3493 118.622C41.7986 118.286 41.3646 117.815 41.0473 117.208C40.73 116.601 40.5713 115.911 40.5713 115.136ZM47.0673 115.15C47.0673 114.571 46.9506 114.067 46.7173 113.638C46.484 113.209 46.1666 112.882 45.7653 112.658C45.3733 112.425 44.9393 112.308 44.4633 112.308C43.9873 112.308 43.5533 112.42 43.1613 112.644C42.7693 112.868 42.4566 113.195 42.2233 113.624C41.99 114.053 41.8733 114.557 41.8733 115.136C41.8733 115.724 41.99 116.237 42.2233 116.676C42.4566 117.105 42.7693 117.437 43.1613 117.67C43.5533 117.894 43.9873 118.006 44.4633 118.006C44.9393 118.006 45.3733 117.894 45.7653 117.67C46.1666 117.437 46.484 117.105 46.7173 116.676C46.9506 116.237 47.0673 115.729 47.0673 115.15ZM53.5742 119.126C52.8556 119.126 52.2022 118.963 51.6142 118.636C51.0356 118.309 50.5782 117.847 50.2422 117.25C49.9156 116.643 49.7522 115.943 49.7522 115.15C49.7522 114.366 49.9202 113.675 50.2562 113.078C50.6016 112.471 51.0682 112.009 51.6562 111.692C52.2442 111.365 52.9022 111.202 53.6302 111.202C54.3582 111.202 55.0162 111.365 55.6042 111.692C56.1922 112.009 56.6542 112.467 56.9902 113.064C57.3356 113.661 57.5082 114.357 57.5082 115.15C57.5082 115.943 57.3309 116.643 56.9762 117.25C56.6309 117.847 56.1596 118.309 55.5622 118.636C54.9649 118.963 54.3022 119.126 53.5742 119.126ZM53.5742 118.006C54.0316 118.006 54.4609 117.899 54.8622 117.684C55.2636 117.469 55.5856 117.147 55.8282 116.718C56.0802 116.289 56.2062 115.766 56.2062 115.15C56.2062 114.534 56.0849 114.011 55.8422 113.582C55.5996 113.153 55.2822 112.835 54.8902 112.63C54.4982 112.415 54.0736 112.308 53.6162 112.308C53.1496 112.308 52.7202 112.415 52.3282 112.63C51.9456 112.835 51.6376 113.153 51.4042 113.582C51.1709 114.011 51.0542 114.534 51.0542 115.15C51.0542 115.775 51.1662 116.303 51.3902 116.732C51.6236 117.161 51.9316 117.483 52.3142 117.698C52.6969 117.903 53.1169 118.006 53.5742 118.006ZM61.6193 119.126C61.0313 119.126 60.504 119.028 60.0373 118.832C59.5706 118.627 59.202 118.347 58.9313 117.992C58.6606 117.628 58.5113 117.213 58.4833 116.746H59.7993C59.8366 117.129 60.014 117.441 60.3313 117.684C60.658 117.927 61.0826 118.048 61.6053 118.048C62.0906 118.048 62.4733 117.941 62.7533 117.726C63.0333 117.511 63.1733 117.241 63.1733 116.914C63.1733 116.578 63.024 116.331 62.7253 116.172C62.4266 116.004 61.9646 115.841 61.3393 115.682C60.77 115.533 60.3033 115.383 59.9393 115.234C59.5846 115.075 59.2766 114.847 59.0153 114.548C58.7633 114.24 58.6373 113.839 58.6373 113.344C58.6373 112.952 58.754 112.593 58.9873 112.266C59.2206 111.939 59.552 111.683 59.9813 111.496C60.4106 111.3 60.9006 111.202 61.4513 111.202C62.3006 111.202 62.9866 111.417 63.5093 111.846C64.032 112.275 64.312 112.863 64.3493 113.61H63.0753C63.0473 113.209 62.884 112.887 62.5853 112.644C62.296 112.401 61.904 112.28 61.4093 112.28C60.952 112.28 60.588 112.378 60.3173 112.574C60.0466 112.77 59.9113 113.027 59.9113 113.344C59.9113 113.596 59.9906 113.806 60.1493 113.974C60.3173 114.133 60.5226 114.263 60.7653 114.366C61.0173 114.459 61.3626 114.567 61.8013 114.688C62.352 114.837 62.8 114.987 63.1453 115.136C63.4906 115.276 63.7846 115.491 64.0273 115.78C64.2793 116.069 64.41 116.447 64.4193 116.914C64.4193 117.334 64.3026 117.712 64.0693 118.048C63.836 118.384 63.5046 118.65 63.0753 118.846C62.6553 119.033 62.17 119.126 61.6193 119.126ZM72.7362 119.126C72.0175 119.126 71.3642 118.963 70.7762 118.636C70.1975 118.309 69.7402 117.847 69.4042 117.25C69.0775 116.643 68.9142 115.943 68.9142 115.15C68.9142 114.366 69.0822 113.675 69.4182 113.078C69.7635 112.471 70.2302 112.009 70.8182 111.692C71.4062 111.365 72.0642 111.202 72.7922 111.202C73.5202 111.202 74.1782 111.365 74.7662 111.692C75.3542 112.009 75.8162 112.467 76.1522 113.064C76.4975 113.661 76.6702 114.357 76.6702 115.15C76.6702 115.943 76.4929 116.643 76.1382 117.25C75.7929 117.847 75.3215 118.309 74.7242 118.636C74.1269 118.963 73.4642 119.126 72.7362 119.126ZM72.7362 118.006C73.1935 118.006 73.6229 117.899 74.0242 117.684C74.4255 117.469 74.7475 117.147 74.9902 116.718C75.2422 116.289 75.3682 115.766 75.3682 115.15C75.3682 114.534 75.2469 114.011 75.0042 113.582C74.7615 113.153 74.4442 112.835 74.0522 112.63C73.6602 112.415 73.2355 112.308 72.7782 112.308C72.3115 112.308 71.8822 112.415 71.4902 112.63C71.1075 112.835 70.7995 113.153 70.5662 113.582C70.3329 114.011 70.2162 114.534 70.2162 115.15C70.2162 115.775 70.3282 116.303 70.5522 116.732C70.7855 117.161 71.0935 117.483 71.4762 117.698C71.8589 117.903 72.2789 118.006 72.7362 118.006ZM80.7813 119.126C80.1933 119.126 79.6659 119.028 79.1993 118.832C78.7326 118.627 78.3639 118.347 78.0933 117.992C77.8226 117.628 77.6733 117.213 77.6453 116.746H78.9613C78.9986 117.129 79.1759 117.441 79.4933 117.684C79.8199 117.927 80.2446 118.048 80.7673 118.048C81.2526 118.048 81.6353 117.941 81.9153 117.726C82.1953 117.511 82.3353 117.241 82.3353 116.914C82.3353 116.578 82.1859 116.331 81.8873 116.172C81.5886 116.004 81.1266 115.841 80.5013 115.682C79.9319 115.533 79.4653 115.383 79.1013 115.234C78.7466 115.075 78.4386 114.847 78.1773 114.548C77.9253 114.24 77.7993 113.839 77.7993 113.344C77.7993 112.952 77.9159 112.593 78.1493 112.266C78.3826 111.939 78.7139 111.683 79.1433 111.496C79.5726 111.3 80.0626 111.202 80.6133 111.202C81.4626 111.202 82.1486 111.417 82.6713 111.846C83.1939 112.275 83.4739 112.863 83.5113 113.61H82.2373C82.2093 113.209 82.0459 112.887 81.7473 112.644C81.4579 112.401 81.0659 112.28 80.5713 112.28C80.1139 112.28 79.7499 112.378 79.4793 112.574C79.2086 112.77 79.0733 113.027 79.0733 113.344C79.0733 113.596 79.1526 113.806 79.3113 113.974C79.4793 114.133 79.6846 114.263 79.9273 114.366C80.1793 114.459 80.5246 114.567 80.9633 114.688C81.5139 114.837 81.9619 114.987 82.3073 115.136C82.6526 115.276 82.9466 115.491 83.1893 115.78C83.4413 116.069 83.5719 116.447 83.5813 116.914C83.5813 117.334 83.4646 117.712 83.2313 118.048C82.9979 118.384 82.6666 118.65 82.2373 118.846C81.8173 119.033 81.3319 119.126 80.7813 119.126ZM92.2901 111.188C93.2235 111.188 93.9795 111.473 94.5581 112.042C95.1368 112.602 95.4261 113.414 95.4261 114.478V119H94.1661V114.66C94.1661 113.895 93.9748 113.311 93.5921 112.91C93.2095 112.499 92.6868 112.294 92.0241 112.294C91.3521 112.294 90.8155 112.504 90.4141 112.924C90.0221 113.344 89.8261 113.955 89.8261 114.758V119H88.5521V111.328H89.8261V112.42C90.0781 112.028 90.4188 111.725 90.8481 111.51C91.2868 111.295 91.7675 111.188 92.2901 111.188ZM100.573 119.126C99.8545 119.126 99.2012 118.963 98.6132 118.636C98.0345 118.309 97.5772 117.847 97.2412 117.25C96.9145 116.643 96.7512 115.943 96.7512 115.15C96.7512 114.366 96.9192 113.675 97.2552 113.078C97.6005 112.471 98.0672 112.009 98.6552 111.692C99.2432 111.365 99.9012 111.202 100.629 111.202C101.357 111.202 102.015 111.365 102.603 111.692C103.191 112.009 103.653 112.467 103.989 113.064C104.335 113.661 104.507 114.357 104.507 115.15C104.507 115.943 104.33 116.643 103.975 117.25C103.63 117.847 103.159 118.309 102.561 118.636C101.964 118.963 101.301 119.126 100.573 119.126ZM100.573 118.006C101.031 118.006 101.46 117.899 101.861 117.684C102.263 117.469 102.585 117.147 102.827 116.718C103.079 116.289 103.205 115.766 103.205 115.15C103.205 114.534 103.084 114.011 102.841 113.582C102.599 113.153 102.281 112.835 101.889 112.63C101.497 112.415 101.073 112.308 100.615 112.308C100.149 112.308 99.7192 112.415 99.3272 112.63C98.9445 112.835 98.6365 113.153 98.4032 113.582C98.1699 114.011 98.0532 114.534 98.0532 115.15C98.0532 115.775 98.1652 116.303 98.3892 116.732C98.6225 117.161 98.9305 117.483 99.3132 117.698C99.6959 117.903 100.116 118.006 100.573 118.006ZM108.618 119.126C108.03 119.126 107.503 119.028 107.036 118.832C106.57 118.627 106.201 118.347 105.93 117.992C105.66 117.628 105.51 117.213 105.482 116.746H106.798C106.836 117.129 107.013 117.441 107.33 117.684C107.657 117.927 108.082 118.048 108.604 118.048C109.09 118.048 109.472 117.941 109.752 117.726C110.032 117.511 110.172 117.241 110.172 116.914C110.172 116.578 110.023 116.331 109.724 116.172C109.426 116.004 108.964 115.841 108.338 115.682C107.769 115.533 107.302 115.383 106.938 115.234C106.584 115.075 106.276 114.847 106.014 114.548C105.762 114.24 105.636 113.839 105.636 113.344C105.636 112.952 105.753 112.593 105.986 112.266C106.22 111.939 106.551 111.683 106.98 111.496C107.41 111.3 107.9 111.202 108.45 111.202C109.3 111.202 109.986 111.417 110.508 111.846C111.031 112.275 111.311 112.863 111.348 113.61H110.074C110.046 113.209 109.883 112.887 109.584 112.644C109.295 112.401 108.903 112.28 108.408 112.28C107.951 112.28 107.587 112.378 107.316 112.574C107.046 112.77 106.91 113.027 106.91 113.344C106.91 113.596 106.99 113.806 107.148 113.974C107.316 114.133 107.522 114.263 107.764 114.366C108.016 114.459 108.362 114.567 108.8 114.688C109.351 114.837 109.799 114.987 110.144 115.136C110.49 115.276 110.784 115.491 111.026 115.78C111.278 116.069 111.409 116.447 111.418 116.914C111.418 117.334 111.302 117.712 111.068 118.048C110.835 118.384 110.504 118.65 110.074 118.846C109.654 119.033 109.169 119.126 108.618 119.126ZM115.653 119.126C115.065 119.126 114.537 119.028 114.071 118.832C113.604 118.627 113.235 118.347 112.965 117.992C112.694 117.628 112.545 117.213 112.517 116.746H113.833C113.87 117.129 114.047 117.441 114.365 117.684C114.691 117.927 115.116 118.048 115.639 118.048C116.124 118.048 116.507 117.941 116.787 117.726C117.067 117.511 117.207 117.241 117.207 116.914C117.207 116.578 117.057 116.331 116.759 116.172C116.46 116.004 115.998 115.841 115.373 115.682C114.803 115.533 114.337 115.383 113.973 115.234C113.618 115.075 113.31 114.847 113.049 114.548C112.797 114.24 112.671 113.839 112.671 113.344C112.671 112.952 112.787 112.593 113.021 112.266C113.254 111.939 113.585 111.683 114.015 111.496C114.444 111.3 114.934 111.202 115.485 111.202C116.334 111.202 117.02 111.417 117.543 111.846C118.065 112.275 118.345 112.863 118.383 113.61H117.109C117.081 113.209 116.917 112.887 116.619 112.644C116.329 112.401 115.937 112.28 115.443 112.28C114.985 112.28 114.621 112.378 114.351 112.574C114.08 112.77 113.945 113.027 113.945 113.344C113.945 113.596 114.024 113.806 114.183 113.974C114.351 114.133 114.556 114.263 114.799 114.366C115.051 114.459 115.396 114.567 115.835 114.688C116.385 114.837 116.833 114.987 117.179 115.136C117.524 115.276 117.818 115.491 118.061 115.78C118.313 116.069 118.443 116.447 118.453 116.914C118.453 117.334 118.336 117.712 118.103 118.048C117.869 118.384 117.538 118.65 117.109 118.846C116.689 119.033 116.203 119.126 115.653 119.126ZM123.317 119.126C122.599 119.126 121.945 118.963 121.357 118.636C120.779 118.309 120.321 117.847 119.985 117.25C119.659 116.643 119.495 115.943 119.495 115.15C119.495 114.366 119.663 113.675 119.999 113.078C120.345 112.471 120.811 112.009 121.399 111.692C121.987 111.365 122.645 111.202 123.373 111.202C124.101 111.202 124.759 111.365 125.347 111.692C125.935 112.009 126.397 112.467 126.733 113.064C127.079 113.661 127.251 114.357 127.251 115.15C127.251 115.943 127.074 116.643 126.719 117.25C126.374 117.847 125.903 118.309 125.305 118.636C124.708 118.963 124.045 119.126 123.317 119.126ZM123.317 118.006C123.775 118.006 124.204 117.899 124.605 117.684C125.007 117.469 125.329 117.147 125.571 116.718C125.823 116.289 125.949 115.766 125.949 115.15C125.949 114.534 125.828 114.011 125.585 113.582C125.343 113.153 125.025 112.835 124.633 112.63C124.241 112.415 123.817 112.308 123.359 112.308C122.893 112.308 122.463 112.415 122.071 112.63C121.689 112.835 121.381 113.153 121.147 113.582C120.914 114.011 120.797 114.534 120.797 115.15C120.797 115.775 120.909 116.303 121.133 116.732C121.367 117.161 121.675 117.483 122.057 117.698C122.44 117.903 122.86 118.006 123.317 118.006ZM131.362 119.126C130.774 119.126 130.247 119.028 129.78 118.832C129.314 118.627 128.945 118.347 128.674 117.992C128.404 117.628 128.254 117.213 128.226 116.746H129.542C129.58 117.129 129.757 117.441 130.074 117.684C130.401 117.927 130.826 118.048 131.348 118.048C131.834 118.048 132.216 117.941 132.496 117.726C132.776 117.511 132.916 117.241 132.916 116.914C132.916 116.578 132.767 116.331 132.468 116.172C132.17 116.004 131.708 115.841 131.082 115.682C130.513 115.533 130.046 115.383 129.682 115.234C129.328 115.075 129.02 114.847 128.758 114.548C128.506 114.24 128.38 113.839 128.38 113.344C128.38 112.952 128.497 112.593 128.73 112.266C128.964 111.939 129.295 111.683 129.724 111.496C130.154 111.3 130.644 111.202 131.194 111.202C132.044 111.202 132.73 111.417 133.252 111.846C133.775 112.275 134.055 112.863 134.092 113.61H132.818C132.79 113.209 132.627 112.887 132.328 112.644C132.039 112.401 131.647 112.28 131.152 112.28C130.695 112.28 130.331 112.378 130.06 112.574C129.79 112.77 129.654 113.027 129.654 113.344C129.654 113.596 129.734 113.806 129.892 113.974C130.06 114.133 130.266 114.263 130.508 114.366C130.76 114.459 131.106 114.567 131.544 114.688C132.095 114.837 132.543 114.987 132.888 115.136C133.234 115.276 133.528 115.491 133.77 115.78C134.022 116.069 134.153 116.447 134.162 116.914C134.162 117.334 134.046 117.712 133.812 118.048C133.579 118.384 133.248 118.65 132.818 118.846C132.398 119.033 131.913 119.126 131.362 119.126ZM141.849 119.126C141.261 119.126 140.734 119.028 140.267 118.832C139.8 118.627 139.432 118.347 139.161 117.992C138.89 117.628 138.741 117.213 138.713 116.746H140.029C140.066 117.129 140.244 117.441 140.561 117.684C140.888 117.927 141.312 118.048 141.835 118.048C142.32 118.048 142.703 117.941 142.983 117.726C143.263 117.511 143.403 117.241 143.403 116.914C143.403 116.578 143.254 116.331 142.955 116.172C142.656 116.004 142.194 115.841 141.569 115.682C141 115.533 140.533 115.383 140.169 115.234C139.814 115.075 139.506 114.847 139.245 114.548C138.993 114.24 138.867 113.839 138.867 113.344C138.867 112.952 138.984 112.593 139.217 112.266C139.45 111.939 139.782 111.683 140.211 111.496C140.64 111.3 141.13 111.202 141.681 111.202C142.53 111.202 143.216 111.417 143.739 111.846C144.262 112.275 144.542 112.863 144.579 113.61H143.305C143.277 113.209 143.114 112.887 142.815 112.644C142.526 112.401 142.134 112.28 141.639 112.28C141.182 112.28 140.818 112.378 140.547 112.574C140.276 112.77 140.141 113.027 140.141 113.344C140.141 113.596 140.22 113.806 140.379 113.974C140.547 114.133 140.752 114.263 140.995 114.366C141.247 114.459 141.592 114.567 142.031 114.688C142.582 114.837 143.03 114.987 143.375 115.136C143.72 115.276 144.014 115.491 144.257 115.78C144.509 116.069 144.64 116.447 144.649 116.914C144.649 117.334 144.532 117.712 144.299 118.048C144.066 118.384 143.734 118.65 143.305 118.846C142.885 119.033 142.4 119.126 141.849 119.126ZM153.168 114.87C153.168 115.113 153.154 115.369 153.126 115.64H146.994C147.04 116.396 147.297 116.989 147.764 117.418C148.24 117.838 148.814 118.048 149.486 118.048C150.036 118.048 150.494 117.922 150.858 117.67C151.231 117.409 151.492 117.063 151.642 116.634H153.014C152.808 117.371 152.398 117.973 151.782 118.44C151.166 118.897 150.4 119.126 149.486 119.126C148.758 119.126 148.104 118.963 147.526 118.636C146.956 118.309 146.508 117.847 146.182 117.25C145.855 116.643 145.692 115.943 145.692 115.15C145.692 114.357 145.85 113.661 146.168 113.064C146.485 112.467 146.928 112.009 147.498 111.692C148.076 111.365 148.739 111.202 149.486 111.202C150.214 111.202 150.858 111.361 151.418 111.678C151.978 111.995 152.407 112.434 152.706 112.994C153.014 113.545 153.168 114.17 153.168 114.87ZM151.852 114.604C151.852 114.119 151.744 113.703 151.53 113.358C151.315 113.003 151.021 112.737 150.648 112.56C150.284 112.373 149.878 112.28 149.43 112.28C148.786 112.28 148.235 112.485 147.778 112.896C147.33 113.307 147.073 113.876 147.008 114.604H151.852ZM155.843 112.574C156.067 112.135 156.385 111.795 156.795 111.552C157.215 111.309 157.724 111.188 158.321 111.188V112.504H157.985C156.557 112.504 155.843 113.279 155.843 114.828V119H154.569V111.328H155.843V112.574ZM162.368 117.824L164.748 111.328H166.106L163.096 119H161.612L158.602 111.328H159.974L162.368 117.824ZM167.738 110.082C167.495 110.082 167.29 109.998 167.122 109.83C166.954 109.662 166.87 109.457 166.87 109.214C166.87 108.971 166.954 108.766 167.122 108.598C167.29 108.43 167.495 108.346 167.738 108.346C167.971 108.346 168.167 108.43 168.326 108.598C168.494 108.766 168.578 108.971 168.578 109.214C168.578 109.457 168.494 109.662 168.326 109.83C168.167 109.998 167.971 110.082 167.738 110.082ZM168.354 111.328V119H167.08V111.328H168.354ZM173.507 118.048C174.067 118.048 174.534 117.917 174.907 117.656C175.28 117.395 175.537 117.021 175.677 116.536H177.049C176.862 117.264 176.494 117.861 175.943 118.328C175.402 118.785 174.72 119.047 173.899 119.112V119.812C174.45 119.803 174.888 119.919 175.215 120.162C175.542 120.405 175.705 120.75 175.705 121.198C175.705 121.637 175.546 121.987 175.229 122.248C174.912 122.509 174.501 122.64 173.997 122.64H172.387V121.814H173.745C174.053 121.814 174.277 121.767 174.417 121.674C174.566 121.581 174.641 121.422 174.641 121.198C174.641 120.983 174.566 120.829 174.417 120.736C174.277 120.643 174.053 120.596 173.745 120.596H173.045V119.098C172.401 119.033 171.832 118.832 171.337 118.496C170.842 118.151 170.455 117.693 170.175 117.124C169.904 116.545 169.769 115.887 169.769 115.15C169.769 114.357 169.928 113.666 170.245 113.078C170.562 112.481 171.001 112.019 171.561 111.692C172.13 111.365 172.779 111.202 173.507 111.202C174.45 111.202 175.224 111.431 175.831 111.888C176.447 112.345 176.853 112.98 177.049 113.792H175.677C175.546 113.325 175.29 112.957 174.907 112.686C174.534 112.415 174.067 112.28 173.507 112.28C172.779 112.28 172.191 112.532 171.743 113.036C171.295 113.531 171.071 114.235 171.071 115.15C171.071 116.074 171.295 116.788 171.743 117.292C172.191 117.796 172.779 118.048 173.507 118.048ZM181.815 119.126C181.096 119.126 180.443 118.963 179.855 118.636C179.276 118.309 178.819 117.847 178.483 117.25C178.156 116.643 177.993 115.943 177.993 115.15C177.993 114.366 178.161 113.675 178.497 113.078C178.842 112.471 179.309 112.009 179.897 111.692C180.485 111.365 181.143 111.202 181.871 111.202C182.599 111.202 183.257 111.365 183.845 111.692C184.433 112.009 184.895 112.467 185.231 113.064C185.576 113.661 185.749 114.357 185.749 115.15C185.749 115.943 185.571 116.643 185.217 117.25C184.871 117.847 184.4 118.309 183.803 118.636C183.205 118.963 182.543 119.126 181.815 119.126ZM181.815 118.006C182.272 118.006 182.701 117.899 183.103 117.684C183.504 117.469 183.826 117.147 184.069 116.718C184.321 116.289 184.447 115.766 184.447 115.15C184.447 114.534 184.325 114.011 184.083 113.582C183.84 113.153 183.523 112.835 183.131 112.63C182.739 112.415 182.314 112.308 181.857 112.308C181.39 112.308 180.961 112.415 180.569 112.63C180.186 112.835 179.878 113.153 179.645 113.582C179.411 114.011 179.295 114.534 179.295 115.15C179.295 115.775 179.407 116.303 179.631 116.732C179.864 117.161 180.172 117.483 180.555 117.698C180.937 117.903 181.357 118.006 181.815 118.006ZM189.86 119.126C189.272 119.126 188.745 119.028 188.278 118.832C187.811 118.627 187.443 118.347 187.172 117.992C186.901 117.628 186.752 117.213 186.724 116.746H188.04C188.077 117.129 188.255 117.441 188.572 117.684C188.899 117.927 189.323 118.048 189.846 118.048C190.331 118.048 190.714 117.941 190.994 117.726C191.274 117.511 191.414 117.241 191.414 116.914C191.414 116.578 191.265 116.331 190.966 116.172C190.667 116.004 190.205 115.841 189.58 115.682C189.011 115.533 188.544 115.383 188.18 115.234C187.825 115.075 187.517 114.847 187.256 114.548C187.004 114.24 186.878 113.839 186.878 113.344C186.878 112.952 186.995 112.593 187.228 112.266C187.461 111.939 187.793 111.683 188.222 111.496C188.651 111.3 189.141 111.202 189.692 111.202C190.541 111.202 191.227 111.417 191.75 111.846C192.273 112.275 192.553 112.863 192.59 113.61H191.316C191.288 113.209 191.125 112.887 190.826 112.644C190.537 112.401 190.145 112.28 189.65 112.28C189.193 112.28 188.829 112.378 188.558 112.574C188.287 112.77 188.152 113.027 188.152 113.344C188.152 113.596 188.231 113.806 188.39 113.974C188.558 114.133 188.763 114.263 189.006 114.366C189.258 114.459 189.603 114.567 190.042 114.688C190.593 114.837 191.041 114.987 191.386 115.136C191.731 115.276 192.025 115.491 192.268 115.78C192.52 116.069 192.651 116.447 192.66 116.914C192.66 117.334 192.543 117.712 192.31 118.048C192.077 118.384 191.745 118.65 191.316 118.846C190.896 119.033 190.411 119.126 189.86 119.126ZM199.185 112.378V116.9C199.185 117.273 199.264 117.539 199.423 117.698C199.581 117.847 199.857 117.922 200.249 117.922H201.187V119H200.039C199.329 119 198.797 118.837 198.443 118.51C198.088 118.183 197.911 117.647 197.911 116.9V112.378H196.917V111.328H197.911V109.396H199.185V111.328H201.187V112.378H199.185ZM209.45 114.87C209.45 115.113 209.436 115.369 209.408 115.64H203.276C203.323 116.396 203.58 116.989 204.046 117.418C204.522 117.838 205.096 118.048 205.768 118.048C206.319 118.048 206.776 117.922 207.14 117.67C207.514 117.409 207.775 117.063 207.924 116.634H209.296C209.091 117.371 208.68 117.973 208.064 118.44C207.448 118.897 206.683 119.126 205.768 119.126C205.04 119.126 204.387 118.963 203.808 118.636C203.239 118.309 202.791 117.847 202.464 117.25C202.138 116.643 201.974 115.943 201.974 115.15C201.974 114.357 202.133 113.661 202.45 113.064C202.768 112.467 203.211 112.009 203.78 111.692C204.359 111.365 205.022 111.202 205.768 111.202C206.496 111.202 207.14 111.361 207.7 111.678C208.26 111.995 208.69 112.434 208.988 112.994C209.296 113.545 209.45 114.17 209.45 114.87ZM208.134 114.604C208.134 114.119 208.027 113.703 207.812 113.358C207.598 113.003 207.304 112.737 206.93 112.56C206.566 112.373 206.16 112.28 205.712 112.28C205.068 112.28 204.518 112.485 204.06 112.896C203.612 113.307 203.356 113.876 203.29 114.604H208.134ZM205.726 109.452L203.78 110.642V109.634L205.726 108.472L207.658 109.634V110.642L205.726 109.452ZM220.078 111.188C220.675 111.188 221.207 111.314 221.674 111.566C222.141 111.809 222.509 112.177 222.78 112.672C223.051 113.167 223.186 113.769 223.186 114.478V119H221.926V114.66C221.926 113.895 221.735 113.311 221.352 112.91C220.979 112.499 220.47 112.294 219.826 112.294C219.163 112.294 218.636 112.509 218.244 112.938C217.852 113.358 217.656 113.969 217.656 114.772V119H216.396V114.66C216.396 113.895 216.205 113.311 215.822 112.91C215.449 112.499 214.94 112.294 214.296 112.294C213.633 112.294 213.106 112.509 212.714 112.938C212.322 113.358 212.126 113.969 212.126 114.772V119H210.852V111.328H212.126V112.434C212.378 112.033 212.714 111.725 213.134 111.51C213.563 111.295 214.035 111.188 214.548 111.188C215.192 111.188 215.761 111.333 216.256 111.622C216.751 111.911 217.119 112.336 217.362 112.896C217.577 112.355 217.931 111.935 218.426 111.636C218.921 111.337 219.471 111.188 220.078 111.188ZM227.972 115.136C227.972 114.352 228.131 113.666 228.448 113.078C228.766 112.481 229.2 112.019 229.75 111.692C230.31 111.365 230.936 111.202 231.626 111.202C232.224 111.202 232.779 111.342 233.292 111.622C233.806 111.893 234.198 112.252 234.468 112.7V108.64H235.756V119H234.468V117.558C234.216 118.015 233.843 118.393 233.348 118.692C232.854 118.981 232.275 119.126 231.612 119.126C230.931 119.126 230.31 118.958 229.75 118.622C229.2 118.286 228.766 117.815 228.448 117.208C228.131 116.601 227.972 115.911 227.972 115.136ZM234.468 115.15C234.468 114.571 234.352 114.067 234.118 113.638C233.885 113.209 233.568 112.882 233.166 112.658C232.774 112.425 232.34 112.308 231.864 112.308C231.388 112.308 230.954 112.42 230.562 112.644C230.17 112.868 229.858 113.195 229.624 113.624C229.391 114.053 229.274 114.557 229.274 115.136C229.274 115.724 229.391 116.237 229.624 116.676C229.858 117.105 230.17 117.437 230.562 117.67C230.954 117.894 231.388 118.006 231.864 118.006C232.34 118.006 232.774 117.894 233.166 117.67C233.568 117.437 233.885 117.105 234.118 116.676C234.352 116.237 234.468 115.729 234.468 115.15ZM244.629 114.87C244.629 115.113 244.615 115.369 244.587 115.64H238.455C238.502 116.396 238.759 116.989 239.225 117.418C239.701 117.838 240.275 118.048 240.947 118.048C241.498 118.048 241.955 117.922 242.319 117.67C242.693 117.409 242.954 117.063 243.103 116.634H244.475C244.27 117.371 243.859 117.973 243.243 118.44C242.627 118.897 241.862 119.126 240.947 119.126C240.219 119.126 239.566 118.963 238.987 118.636C238.418 118.309 237.97 117.847 237.643 117.25C237.317 116.643 237.153 115.943 237.153 115.15C237.153 114.357 237.312 113.661 237.629 113.064C237.947 112.467 238.39 112.009 238.959 111.692C239.538 111.365 240.201 111.202 240.947 111.202C241.675 111.202 242.319 111.361 242.879 111.678C243.439 111.995 243.869 112.434 244.167 112.994C244.475 113.545 244.629 114.17 244.629 114.87ZM243.313 114.604C243.313 114.119 243.206 113.703 242.991 113.358C242.777 113.003 242.483 112.737 242.109 112.56C241.745 112.373 241.339 112.28 240.891 112.28C240.247 112.28 239.697 112.485 239.239 112.896C238.791 113.307 238.535 113.876 238.469 114.604H243.313ZM248.747 119.126C248.159 119.126 247.631 119.028 247.165 118.832C246.698 118.627 246.329 118.347 246.059 117.992C245.788 117.628 245.639 117.213 245.611 116.746H246.927C246.964 117.129 247.141 117.441 247.459 117.684C247.785 117.927 248.21 118.048 248.733 118.048C249.218 118.048 249.601 117.941 249.881 117.726C250.161 117.511 250.301 117.241 250.301 116.914C250.301 116.578 250.151 116.331 249.853 116.172C249.554 116.004 249.092 115.841 248.467 115.682C247.897 115.533 247.431 115.383 247.067 115.234C246.712 115.075 246.404 114.847 246.143 114.548C245.891 114.24 245.765 113.839 245.765 113.344C245.765 112.952 245.881 112.593 246.115 112.266C246.348 111.939 246.679 111.683 247.109 111.496C247.538 111.3 248.028 111.202 248.579 111.202C249.428 111.202 250.114 111.417 250.637 111.846C251.159 112.275 251.439 112.863 251.477 113.61H250.203C250.175 113.209 250.011 112.887 249.713 112.644C249.423 112.401 249.031 112.28 248.537 112.28C248.079 112.28 247.715 112.378 247.445 112.574C247.174 112.77 247.039 113.027 247.039 113.344C247.039 113.596 247.118 113.806 247.277 113.974C247.445 114.133 247.65 114.263 247.893 114.366C248.145 114.459 248.49 114.567 248.929 114.688C249.479 114.837 249.927 114.987 250.273 115.136C250.618 115.276 250.912 115.491 251.155 115.78C251.407 116.069 251.537 116.447 251.547 116.914C251.547 117.334 251.43 117.712 251.197 118.048C250.963 118.384 250.632 118.65 250.203 118.846C249.783 119.033 249.297 119.126 248.747 119.126ZM252.589 115.15C252.589 114.357 252.748 113.666 253.065 113.078C253.383 112.481 253.821 112.019 254.381 111.692C254.951 111.365 255.599 111.202 256.327 111.202C257.27 111.202 258.045 111.431 258.651 111.888C259.267 112.345 259.673 112.98 259.869 113.792H258.497C258.367 113.325 258.11 112.957 257.727 112.686C257.354 112.415 256.887 112.28 256.327 112.28C255.599 112.28 255.011 112.532 254.563 113.036C254.115 113.531 253.891 114.235 253.891 115.15C253.891 116.074 254.115 116.788 254.563 117.292C255.011 117.796 255.599 118.048 256.327 118.048C256.887 118.048 257.354 117.917 257.727 117.656C258.101 117.395 258.357 117.021 258.497 116.536H259.869C259.664 117.32 259.253 117.95 258.637 118.426C258.021 118.893 257.251 119.126 256.327 119.126C255.599 119.126 254.951 118.963 254.381 118.636C253.821 118.309 253.383 117.847 253.065 117.25C252.748 116.653 252.589 115.953 252.589 115.15ZM264.635 119.126C263.916 119.126 263.263 118.963 262.675 118.636C262.096 118.309 261.639 117.847 261.303 117.25C260.976 116.643 260.813 115.943 260.813 115.15C260.813 114.366 260.981 113.675 261.317 113.078C261.662 112.471 262.129 112.009 262.717 111.692C263.305 111.365 263.963 111.202 264.691 111.202C265.419 111.202 266.077 111.365 266.665 111.692C267.253 112.009 267.715 112.467 268.051 113.064C268.396 113.661 268.569 114.357 268.569 115.15C268.569 115.943 268.392 116.643 268.037 117.25C267.692 117.847 267.221 118.309 266.623 118.636C266.026 118.963 265.363 119.126 264.635 119.126ZM264.635 118.006C265.092 118.006 265.522 117.899 265.923 117.684C266.325 117.469 266.647 117.147 266.889 116.718C267.141 116.289 267.267 115.766 267.267 115.15C267.267 114.534 267.146 114.011 266.903 113.582C266.66 113.153 266.343 112.835 265.951 112.63C265.559 112.415 265.135 112.308 264.677 112.308C264.21 112.308 263.781 112.415 263.389 112.63C263.006 112.835 262.698 113.153 262.465 113.582C262.232 114.011 262.115 114.534 262.115 115.15C262.115 115.775 262.227 116.303 262.451 116.732C262.684 117.161 262.992 117.483 263.375 117.698C263.758 117.903 264.178 118.006 264.635 118.006ZM273.702 111.188C274.636 111.188 275.392 111.473 275.97 112.042C276.549 112.602 276.838 113.414 276.838 114.478V119H275.578V114.66C275.578 113.895 275.387 113.311 275.004 112.91C274.622 112.499 274.099 112.294 273.436 112.294C272.764 112.294 272.228 112.504 271.826 112.924C271.434 113.344 271.238 113.955 271.238 114.758V119H269.964V111.328H271.238V112.42C271.49 112.028 271.831 111.725 272.26 111.51C272.699 111.295 273.18 111.188 273.702 111.188ZM280.193 112.378V116.9C280.193 117.273 280.273 117.539 280.431 117.698C280.59 117.847 280.865 117.922 281.257 117.922H282.195V119H281.047C280.338 119 279.806 118.837 279.451 118.51C279.097 118.183 278.919 117.647 278.919 116.9V112.378H277.925V111.328H278.919V109.396H280.193V111.328H282.195V112.378H280.193ZM286.805 119.126C286.086 119.126 285.433 118.963 284.845 118.636C284.266 118.309 283.809 117.847 283.473 117.25C283.146 116.643 282.983 115.943 282.983 115.15C282.983 114.366 283.151 113.675 283.487 113.078C283.832 112.471 284.299 112.009 284.887 111.692C285.475 111.365 286.133 111.202 286.861 111.202C287.589 111.202 288.247 111.365 288.835 111.692C289.423 112.009 289.885 112.467 290.221 113.064C290.566 113.661 290.739 114.357 290.739 115.15C290.739 115.943 290.562 116.643 290.207 117.25C289.862 117.847 289.39 118.309 288.793 118.636C288.196 118.963 287.533 119.126 286.805 119.126ZM286.805 118.006C287.262 118.006 287.692 117.899 288.093 117.684C288.494 117.469 288.816 117.147 289.059 116.718C289.311 116.289 289.437 115.766 289.437 115.15C289.437 114.534 289.316 114.011 289.073 113.582C288.83 113.153 288.513 112.835 288.121 112.63C287.729 112.415 287.304 112.308 286.847 112.308C286.38 112.308 285.951 112.415 285.559 112.63C285.176 112.835 284.868 113.153 284.635 113.582C284.402 114.011 284.285 114.534 284.285 115.15C284.285 115.775 284.397 116.303 284.621 116.732C284.854 117.161 285.162 117.483 285.545 117.698C285.928 117.903 286.348 118.006 286.805 118.006ZM294.85 119.126C294.262 119.126 293.735 119.028 293.268 118.832C292.801 118.627 292.433 118.347 292.162 117.992C291.891 117.628 291.742 117.213 291.714 116.746H293.03C293.067 117.129 293.245 117.441 293.562 117.684C293.889 117.927 294.313 118.048 294.836 118.048C295.321 118.048 295.704 117.941 295.984 117.726C296.264 117.511 296.404 117.241 296.404 116.914C296.404 116.578 296.255 116.331 295.956 116.172C295.657 116.004 295.195 115.841 294.57 115.682C294.001 115.533 293.534 115.383 293.17 115.234C292.815 115.075 292.507 114.847 292.246 114.548C291.994 114.24 291.868 113.839 291.868 113.344C291.868 112.952 291.985 112.593 292.218 112.266C292.451 111.939 292.783 111.683 293.212 111.496C293.641 111.3 294.131 111.202 294.682 111.202C295.531 111.202 296.217 111.417 296.74 111.846C297.263 112.275 297.543 112.863 297.58 113.61H296.306C296.278 113.209 296.115 112.887 295.816 112.644C295.527 112.401 295.135 112.28 294.64 112.28C294.183 112.28 293.819 112.378 293.548 112.574C293.277 112.77 293.142 113.027 293.142 113.344C293.142 113.596 293.221 113.806 293.38 113.974C293.548 114.133 293.753 114.263 293.996 114.366C294.248 114.459 294.593 114.567 295.032 114.688C295.583 114.837 296.031 114.987 296.376 115.136C296.721 115.276 297.015 115.491 297.258 115.78C297.51 116.069 297.641 116.447 297.65 116.914C297.65 117.334 297.533 117.712 297.3 118.048C297.067 118.384 296.735 118.65 296.306 118.846C295.886 119.033 295.401 119.126 294.85 119.126ZM24.602 137.136C24.602 136.352 24.7607 135.666 25.078 135.078C25.3953 134.481 25.8293 134.019 26.38 133.692C26.94 133.365 27.5607 133.202 28.242 133.202C28.914 133.202 29.4973 133.347 29.992 133.636C30.4867 133.925 30.8553 134.289 31.098 134.728V133.328H32.386V141H31.098V139.572C30.846 140.02 30.468 140.393 29.964 140.692C29.4693 140.981 28.8907 141.126 28.228 141.126C27.5467 141.126 26.9307 140.958 26.38 140.622C25.8293 140.286 25.3953 139.815 25.078 139.208C24.7607 138.601 24.602 137.911 24.602 137.136ZM31.098 137.15C31.098 136.571 30.9813 136.067 30.748 135.638C30.5147 135.209 30.1973 134.882 29.796 134.658C29.404 134.425 28.97 134.308 28.494 134.308C28.018 134.308 27.584 134.42 27.192 134.644C26.8 134.868 26.4873 135.195 26.254 135.624C26.0207 136.053 25.904 136.557 25.904 137.136C25.904 137.724 26.0207 138.237 26.254 138.676C26.4873 139.105 26.8 139.437 27.192 139.67C27.584 139.894 28.018 140.006 28.494 140.006C28.97 140.006 29.404 139.894 29.796 139.67C30.1973 139.437 30.5147 139.105 30.748 138.676C30.9813 138.237 31.098 137.729 31.098 137.15ZM35.8129 134.378V138.9C35.8129 139.273 35.8923 139.539 36.0509 139.698C36.2096 139.847 36.4849 139.922 36.8769 139.922H37.8149V141H36.6669C35.9576 141 35.4256 140.837 35.0709 140.51C34.7163 140.183 34.5389 139.647 34.5389 138.9V134.378H33.5449V133.328H34.5389V131.396H35.8129V133.328H37.8149V134.378H35.8129ZM46.0785 136.87C46.0785 137.113 46.0645 137.369 46.0365 137.64H39.9045C39.9512 138.396 40.2079 138.989 40.6745 139.418C41.1505 139.838 41.7245 140.048 42.3965 140.048C42.9472 140.048 43.4045 139.922 43.7685 139.67C44.1419 139.409 44.4032 139.063 44.5525 138.634H45.9245C45.7192 139.371 45.3085 139.973 44.6925 140.44C44.0765 140.897 43.3112 141.126 42.3965 141.126C41.6685 141.126 41.0152 140.963 40.4365 140.636C39.8672 140.309 39.4192 139.847 39.0925 139.25C38.7659 138.643 38.6025 137.943 38.6025 137.15C38.6025 136.357 38.7612 135.661 39.0785 135.064C39.3959 134.467 39.8392 134.009 40.4085 133.692C40.9872 133.365 41.6499 133.202 42.3965 133.202C43.1245 133.202 43.7685 133.361 44.3285 133.678C44.8885 133.995 45.3179 134.434 45.6165 134.994C45.9245 135.545 46.0785 136.17 46.0785 136.87ZM44.7625 136.604C44.7625 136.119 44.6552 135.703 44.4405 135.358C44.2259 135.003 43.9319 134.737 43.5585 134.56C43.1945 134.373 42.7885 134.28 42.3405 134.28C41.6965 134.28 41.1459 134.485 40.6885 134.896C40.2405 135.307 39.9839 135.876 39.9185 136.604H44.7625ZM43.7125 131.158L40.7305 132.754V131.802L43.7125 130.052V131.158Z" fill="#EFEFF1"/>
</g>
<defs>
<linearGradient id="paint0_linear_43_19857" x1="271.04" y1="-30.8" x2="112.565" y2="128.497" gradientUnits="userSpaceOnUse">
<stop offset="0.693218" stop-color="#EC7FB6"/>
<stop offset="1" stop-color="#D48CB1"/>
</linearGradient>
<linearGradient id="paint1_linear_43_19857" x1="370.095" y1="35.7373" x2="332.846" y2="206.049" gradientUnits="userSpaceOnUse">
<stop stop-color="white" stop-opacity="0.39"/>
<stop offset="1" stop-color="white" stop-opacity="0"/>
</linearGradient>
<linearGradient id="paint2_linear_43_19857" x1="-70.0065" y1="121.698" x2="2.20279" y2="-36.9823" gradientUnits="userSpaceOnUse">
<stop stop-color="white" stop-opacity="0.17"/>
<stop offset="1" stop-color="white" stop-opacity="0"/>
</linearGradient>
<clipPath id="clip0_43_19857">
<rect width="327" height="176" rx="16" fill="white"/>
</clipPath>
</defs>
</svg>
